<?xml version="1.0" standalone="no"?>
<!DOCTYPE svg PUBLIC "-//W3C//DTD SVG 1.1//EN" "http://www.w3.org/Graphics/SVG/1.1/DTD/svg11.dtd" >
<svg xmlns="http://www.w3.org/2000/svg">
<metadata></metadata>
<defs>
<font id="the_next_web_iconsregular" horiz-adv-x="921" >
<font-face units-per-em="2048" ascent="1638" descent="-410" />
<missing-glyph horiz-adv-x="500" />
<glyph horiz-adv-x="2048" />
<glyph horiz-adv-x="2048" />
<glyph unicode="&#xd;" horiz-adv-x="2048" />
<glyph unicode="A" d="M10 348v156h164q-1 -2 -4 -4.5t-10 -8.5t-15 -14q-8 -12 -63 -108v-21h-72zM23 100l12 11q-1 -2 -2 -5.5t-2 -5.5h-8zM35 111q13 40 26 125q9 -6 68 -35q-27 -19 -61 -58q-4 -3 -33 -32zM76 276q109 202 205 353q47 -21 84 -45q-52 -88 -97 -176q-13 -22 -45 -75.5 t-47 -80.5v-23l19 -8q-9 1 -17.5 3t-14.5 3t-13 4t-11.5 4t-11 5.5t-9 5.5t-10 6.5t-9 6.5t-9.5 7.5t-10 7.5zM279 348q7 14 14 21q18 40 65 114v21h203l2 -6q33 -50 45 -92q6 -5 12 -12t9 -12t8.5 -14t7.5 -12v-8h-366zM291 674q3 2 7 3.5t4 2t-1 2.5l18 16q5 5 5 15l8 12 q0 19 0.5 19.5t19.5 0.5v-12q56 -38 80 -49v-4h-8v-14l-8 -4q-13 -15 -13 -29v-8h11q-6 0 -7 -1.5t-1 -7.5h-11l-8 -4q-47 32 -92 47v11zM362 762q12 26 39 26q5 0 17 -4q9 -9 13 -12q1 0 1 -1v-1q14 -14 14 -27q0 -11 -10 -24q-10 4 -28.5 18.5t-26.5 18.5q-3 -2 -19 6z M408 924q0 12 8 12q6 0 10 -4q12 -15 27 -27q110 -184 176 -276q7 -14 40 -74.5t50 -97.5v-15q-4 -2 -31 -2q-22 -11 -29 -18h-8q-6 11 -16.5 28.5t-16 30t-8.5 27.5q-19 33 -51.5 97t-50.5 97q-7 18 -31 66.5t-33 73.5q-23 62 -30 76q-6 9 -6 6zM664 385v6l6 -4l-2 -2h-4z M670 387q40 15 63 35h2l4 -8l6 -23q4 -4 6.5 -8t5.5 -12t7 -15q2 -10 14 -26q-10 -7 -31.5 -17.5t-27.5 -15.5q2 12 -8 27q-2 21 -19 38q-5 12 -22 25zM739 504h172v-156h-90v-10h-6q-3 16 -9 32t-11.5 27t-15.5 28.5t-15 27.5q-14 33 -25 51zM750 258v10q27 16 47 23 q19 -34 63 -94q12 -34 27 -50q8 -13 8 -22q0 -20 -31 -31q0 -4 -6 -4h-16q-21 12 -29 31q-36 90 -63 137z" />
<glyph unicode="B" d="M4 520q0 10 6 19l234 397q9 19 16 22l4 3q6 4 17 4q12 0 16 -4q12 -7 16 -27v-2l236 -393q4 -6 4 -19q0 -14 -8 -22q-6 -10 -21.5 -38t-40 -73t-43.5 -78q-19 -34 -22 -43v-22h31q6 0 11 -4.5t5 -10.5q0 -16 -16 -16h-33v-61q0 -62 6 -66v-4l-37 -29q-39 0 -39 37v2 q-2 2 -2 121h-132v-119v-2q0 -39 -40 -39q-13 0 -27 19q-5 11 -8 14v1q5 14 5 78q0 21 -1 48h-32q-6 0 -11.5 4.5t-5.5 11.5q0 6 5.5 10.5t11.5 4.5h32q0 4 -1 11t-1 9q-6 25 -22 45q-62 118 -105 189q-8 12 -8 22zM76 520q41 -67 102 -182q3 -6 10 -18t10 -18.5t7 -17 t7 -20.5v-20h134v20q3 12 7.5 23t13 27t12.5 24q21 37 57 101.5t45 80.5l-192 322v-289q33 -13 33 -43q0 -19 -12 -31t-31 -12t-31 12t-12 31q0 30 30 43v289z" />
<glyph unicode="C" d="M18 631q-13 14 -13 29t13 30q22 21 64 62.5t63 62.5l29 25q22 15 43 -6q14 -10 43 -39q3 -4 10 -6.5t9 -0.5q10 5 19.5 7.5t22 1t17 -2.5t22 -6t19.5 -6l8 -2q-28 -3 -49 -18q-8 -6 -31 -21t-37.5 -27.5t-25.5 -29.5q-4 -8 -29 -76q-1 -4 -6.5 -20t-6 -20.5t-3.5 -21 t0 -22.5l-4 -6q-40 -32 -54 -45l-14 41q-4 17 -12 21q-26 29 -97 96zM140 382q-1 4 -1 8q0 21 19 40q4 5 9 11t12 13.5t11 12.5q21 21 43 21l17 -3q33 -11 33 -51q0 -2 1 -4.5t1 -3.5l8 -2q8 12 29 33q24 24 55 12q33 -11 33 -41q0 -9 -7 -27t-8 -22q20 7 36 7q24 0 36 -17 q9 -13 9 -28q0 -24 -23 -54q29 3 43 -4t20 -29q8 -18 -10 -39q-4 -7 -10.5 -14.5t-15 -16.5t-13.5 -14q-19 -19 -39 -19q-8 0 -16 3q-29 10 -29 54v9q-24 -32 -50 -32q-15 0 -30 10q-21 11 -21 39q0 14 5 32q-24 -16 -44 -16q-21 0 -38 18q-13 13 -13 29q0 19 19 41l-15 2.5 t-15.5 3t-10.5 4.5q-26 8 -30 34zM240 553q6 17 17 49.5t17 48.5q7 17 17 25q48 38 69 51q17 12 46 12h135q18 0 41 23q17 25 51 55q4 5 9.5 11t13 12.5t10.5 9.5q25 25 41 27h2q13 -4 24 -12.5t23 -21t20 -18.5l121 -118q13 -14 13 -28.5t-13 -29.5l-92 -88q-10 -8 -10 -26 q0 -60 -33 -107l-6 -4q-19 18 -57.5 57.5t-59.5 59.5q-9 8 -86 59q-18 21 -51 21h-94q-17 0 -37 -15.5t-25 -30.5q-3 -8 -8 -24.5t-8 -24.5q-6 -20 -23 -29t-37 -3t-28 23q-5 10 -5 20q0 8 3 16zM369 510v4v-4zM369 514q9 37 18 49q7 15 27 15q23 2 47 2t49 -2q6 0 16 -7 q81 -49 193 -165q19 -23 45 -23q0 -20 -19 -33q-13 -8 -25 -8q-20 0 -32 27l14 -45q12 -15 11.5 -33t-13.5 -31q-16 -14 -32 -14t-31 14q-2 1 -11 4q-17 7 -18 5q0 -1 4 -5q8 -18 8 -32q0 -22 -20 -35q-15 -11 -28.5 -11t-26.5 11q14 26 14 49q0 12 -4 24q-10 30 -37 45v11 q5 29 -13.5 58.5t-47.5 39.5q-6 0 -6 6q-10 72 -82 84z" />
<glyph unicode="D" d="M4 475v74q0 19 13.5 32t33.5 13h90q11 45 33 86l-63 63q-12 13 -12 32t12 34l53 53q15 12 33.5 12t31.5 -12l64 -63q38 20 86 32v91q0 20 13 33.5t32 13.5h74q20 0 33.5 -13.5t13.5 -33.5v-91q52 -13 84 -34l63 65q15 12 34 12t32 -12l53 -53q13 -15 13 -34t-13 -32 l-63 -63q24 -45 34 -86h90q19 0 32.5 -13t13.5 -32v-74q0 -20 -13.5 -33.5t-32.5 -13.5h-90q-11 -44 -37 -84l66 -63q13 -15 13 -34t-13 -32l-53 -53q-14 -14 -32.5 -14t-33.5 14l-63 65q-40 -26 -84 -37v-90q0 -19 -13 -32t-32 -13h-76q-19 0 -32 13t-13 32v90 q-37 10 -86 35l-64 -63q-13 -14 -31.5 -14t-33.5 14l-53 53q-12 13 -12 32t12 34l65 63q-22 35 -35 84h-90q-20 0 -33.5 13.5t-13.5 33.5zM295 512q0 -69 49 -117.5t117 -48.5q69 0 117.5 48.5t48.5 117.5q0 68 -48.5 117t-117.5 49q-67 0 -116.5 -49t-49.5 -117z" />
<glyph unicode="E" d="M12 80q-10 5 -10 33q0 29 12 85q22 108 49 130q31 24 127 24q1 6 1 12q0 22 -18 48q-23 32 -54 49q30 44 73 74.5t71 39.5l28 9l4 4q1 38 1 58t-1 22q-90 8 -152 47q22 18 59 30t63 15l26 2l4 4q13 123 27 152q7 20 118 49h2v4q2 0 2 -2q4 -1 20.5 -6t30 -9t29 -10 t26 -13t13.5 -13q5 -13 11.5 -51t9.5 -69l4 -32l4 -4q96 -6 145 -47q-62 -39 -147 -47q-2 1 -2.5 -19t0.5 -41v-20l2 -4q4 -1 11.5 -3.5t29 -12t41.5 -22t45.5 -35.5t44.5 -50q-30 -17 -54 -49q-19 -25 -19 -48q0 -6 1 -12q94 0 127 -24q25 -22 47 -130q12 -56 12 -85 q0 -28 -10 -33q-49 -27 -424 -27q-381 0 -430 27z" />
<glyph unicode="F" d="M4 522v29h102v-29h-102zM117 246l76 73l20 -20l-76 -74zM123 842l20 20l74 -74l-20 -20zM266 524q0 82 57.5 139.5t139.5 57.5q83 0 141 -57.5t58 -139.5q0 -11 -1.5 -21t-2.5 -16.5t-6.5 -18.5t-8 -16.5t-12 -23t-13.5 -25.5q-26 -51 -37 -82.5t-22 -95.5 q-3 -18 -20 -24q-7 -3 -18 -5t-19.5 -2t-21.5 0.5t-17 0.5q-1 0 -31.5 0.5t-42.5 5.5q-16 7 -22 26q-21 124 -60 176q-41 53 -41 121zM373 74v6q0 9 6.5 15.5t15.5 6.5h137q10 0 17.5 -6.5t7.5 -15.5v-6q0 -10 -7.5 -17.5t-17.5 -7.5h-137q-9 0 -15.5 7.5t-6.5 17.5z M373 145v7q0 10 6.5 17t15.5 7h137q11 0 18 -7t7 -17v-7q0 -9 -7.5 -15.5t-17.5 -6.5h-137q-9 0 -15.5 6.5t-6.5 15.5zM451 858v105h28v-105h-28zM676 285l20 20l72 -74l-18 -20zM680 811l74 76l20 -21l-74 -75zM784 522v29h105v-29h-105z" />
<glyph unicode="G" d="M4 518q0 9 7 16t16 7h106q9 0 16 -7t7 -16t-7 -14.5t-16 -5.5h-106q-9 0 -16 5.5t-7 14.5zM135 205q-7 8 -7 16.5t7 16.5l74 73q17 13 33 0q13 -16 0 -32l-74 -74q-16 -13 -33 0zM135 801q-7 9 -7 17t7 16q17 13 33 0l74 -76q13 -16 0 -33q-16 -13 -33 0zM244 522 q0 8 8 8h49q10 0 10 -8t-10 -8h-49q-8 0 -8 8zM303 379q-1 3 -1 6t1 6l35 33q8 5 14 2q3 -6 0 -12l-37 -35q-3 -6 -12 0zM303 653q-1 3 -1 6.5t1 6.5q8 6 14 0l33 -33q5 -7 2 -15q-6 -3 -14 0zM416 80v455q0 12 9.5 20t23.5 8q13 0 22.5 -8t11.5 -20v-455q0 -13 -10 -22 t-24 -9t-23.5 9t-9.5 22zM428 836v104q0 9 7 16t16 7t15.5 -7t6.5 -16v-104q0 -10 -6.5 -16.5t-15.5 -6.5t-16 6.5t-7 16.5zM442 668v49q0 8 9 8q8 0 8 -8v-49q0 -9 -8 -9q-9 0 -9 9zM549 416q-3 2 -3 4t3 6q6 3 12 0l35 -37q7 -4 -2 -10q-3 -7 -10 0zM549 618q-3 4 -3 8 t3 7l37 33q4 7 10 -2q7 -4 0 -11l-35 -35q-6 -3 -12 0zM590 522q0 8 8 8h49q8 0 8 -8t-8 -8h-49q-8 0 -8 8zM657 279q-7 8 -7 16t7 16q16 13 33 0l76 -73q13 -17 0 -33q-8 -7 -16 -7t-17 7zM657 725q-7 9 -7 17t7 16l76 76q9 6 17 6t16 -6q13 -16 0 -33l-76 -76 q-17 -13 -33 0zM745 518q0 9 6.5 16t16.5 7h104q9 0 16 -7t7 -16t-7 -14.5t-16 -5.5h-104q-23 0 -23 20z" />
<glyph unicode="H" d="M4 508q0 58 40 98.5t99 40.5q52 0 93 -33l372 201v10q0 58 41.5 99t98.5 41q59 0 100 -41t41 -99q0 -59 -41.5 -100t-99.5 -41q-47 0 -91 35l-372 -201l-2 -4v-6h4v-2l-2 -4l364 -211q44 41 99 41q58 0 99.5 -41.5t41.5 -100.5q0 -58 -41 -98.5t-100 -40.5t-99.5 40.5 t-40.5 98.5l-370 213q-42 -34 -95 -34q-59 0 -99 40.5t-40 98.5z" />
<glyph unicode="I" d="M4 319v351q0 19 13.5 32t33.5 13h244v-320q2 -9 22.5 -32t30.5 -23h221q-2 -22 -15.5 -44t-29.5 -22h-301q-39 -65 -117 -88q14 26 14 47q0 23 -16 41h-53q-20 0 -33.5 13t-13.5 32zM352 444v349q0 20 14 32.5t33 12.5h473q19 0 32.5 -12.5t13.5 -32.5v-349 q0 -19 -13.5 -32t-32.5 -13h-55q-16 -19 -16 -41q0 -23 18 -49q-78 22 -119 90h-301q-19 0 -33 13t-14 32zM838 297l8 -2v-4q0 -1 -2 0.5t-6 5.5z" />
<glyph unicode="J" d="M-2 686h2v-8zM0 686v14l2 2q7 -5 10 -10q-3 -6 -12 -6zM12 692q7 5 11 17q4 4 4 10q12 20 4 37l2 2l-2 12h4q0 2 -4 10l2 8l-8 -6l16 23l6 10l19 27l4 -4l6 6l-4 4l18 8v4h4q5 0 17 6q7 0 10 6l14 13q5 5 2 8l6 22h4q5 10 17 13q9 3 16 10l-4 -2l12 18l2 4q1 -4 3 -6 q6 -5 12 -6t9.5 0t4.5 0q8 -8 14 -2l21 8q8 0 8 6l19 7h4v-4h22q14 -7 23 4l16 -4h6l6 4q8 0 11 -7l4 3l-2 -3l-4 -2q9 -11 9 -11.5t-7 -8.5q0 -5 1.5 -7.5t-1.5 -2.5q2 0 8 -6v-7q8 -8 20 -8q13 0 25 -6q3 -13 18 -16q10 0 25 -11q9 -4 18 2l2 11v10q10 13 25 10q4 0 8 -2 l4 -2q3 -6 15 -6l4 -4h12q27 -5 31 -6q9 -2 22 6q1 0 2 0.5t3.5 1.5t4.5 2l17 2v-4l4 -4h4q6 0 10 4l13 -21l-2 2l-3 -10l-4 -6v-1q-3 3 -18 9q4 -10 8.5 -17.5t9 -14t7.5 -11.5q2 -2 7 -9.5t9 -10.5q-5 -8 2 -15l14 -8l8 -4l-2 -10l5 -2v-8q0 -23 16 -31q11 -8 14 -18 q0 -6 2.5 -11t5 -7.5t5.5 -4.5l4 -2h6l-2 -2q15 -7 18 -14l2 2q4 -5 9.5 -10.5t7.5 -8.5q-2 -13 8 -18q10 -14 30 -2q3 0 5 2q8 0 12 4l16 6q2 1 6.5 2t6.5 2l6 10q0 4 2 4v-28h-2q2 -4 -4 -10q0 -10 -5 -15q-2 -6 -4 -16.5t-4.5 -16.5t-7.5 -10l2 -2q-8 -8 -12 -20l-19 -23 q-1 -1 -14 -10l-20 -25q-12 -18 -15 -22l-10 -10l-6 -7q0 -5 -7 -15t-9 -15q-10 -21 2 -31v-4q0 -1 -1 -5t-1 -7q1 -2 1.5 -7.5t2 -10t4.5 -7.5q4 -4 4 -8q-4 -16 -4 -25l4 -18l-4 -2q1 0 -2 -6q-17 -17 -21 -25l-16 -2l-10 -8q-3 -3 -13.5 -12.5t-13.5 -16.5l2 -10h-4v-14 h4l-2 -2v-13l-12 -12l-19 -6v-4l-8 -2q-4 -9 0 -13l-6 -14q-1 -1 -2.5 -2t-2.5 -2t-1 -2l4 2l-31 -27l-4 -4l-12.5 -7.5t-12 -7.5t-11.5 -5t-13 -2v-4h-14l-19 -2h-14l-4 -3q-11 0 -19 -4q-1 1 -5 3.5t-7 3.5l-2 6v6h-4v6l4 2l-2 4q-3 1 -10 12l-2 -2l-11 21l-2 2q-4 0 -4 8 q-5 8 -8 25q-4 6 -4 18q0 4 -2 8t-2 6q-2 2 -4.5 5t-4 5t-1.5 3q-2 4 -17 24q-7 6 -4 29q0 4 3.5 12.5t4.5 14.5q0 2 6 8q6 3 9.5 16t-0.5 19q-7 7 -7 14l3 2l-7 10h4l-12 31h-4l-10 14l8 -2q-19 24 -27 29q-3 3 -5.5 6.5t-5.5 8l-5 7.5q6 4 6 25h-4q7 6 12 31l-2 -2l-18 20 l2 4l-4 2q-5 1 -14 0.5t-15.5 0.5t-11.5 5q-3 4 -8 19l-15 6h-14l-23 -4l-2 4l-14 -6q-4 -1 -16 -6t-21 -6l-6 6q-14 4 -41 4v-4q-6 0 -6 -2q-4 1 -7 0t-4.5 -2.5t-2.5 -1.5l-4 2q-4 4 -11.5 10.5t-9.5 9.5q-17 17 -25 23q-10 10 -10 18l-8 10q-2 11 -9.5 22t-8.5 15 q-8 4 -9 4l2 4q-9 3 -6 11q2 2 2 8q0 12 -4 18zM16 754l7 14q4 -4 8 -12h-2q-6 -2 -13 -2zM43 805l2 -2l2 4zM133 539v4l4 2v-4zM176 537h4l6 -5l4 -2zM326 965q2 0 2 2l2 -2h-4zM373 961l4 2q0 -2 -4 -2zM397 338l4 2l2 -2l-2 -2zM481 891l4 4zM492 63q4 1 24 3h8zM549 63 v5h4v-5h-4zM647 899q4 -4 4 -6zM668 168h2v-4zM678 803v2q2 -2 2 -4zM750 383q6 12 6 -2l20 -8q-19 3 -26 10zM754 283l2 2l4 -4zM756 682l2 2zM760 334h4h-4zM860 561l6 6v-8l-2 -2zM885 621v10h2zM885 641h4l-2 -10zM885 659h4h-4z" />
<glyph unicode="K" d="M8 582q4 0 6 2h6q0 5 -1.5 10.5t-3.5 11t-3 8.5q12 12 6 29l5 10l10 2q8 4 12 4q3 0 8 9l6 4q1 1 11 6q13 -4 26 6q11 0 15 8v-2q20 0 28 8q14 2 19 21q1 1 5.5 3.5t6.5 4.5q-6 3 -6 10l2 8l8 9q8 -8 8 -9l8 15l13 -8l-2 18l18 23q11 -3 14 6q6 4 17 0h2q3 -11 14 -11 q4 -4 6 -8h17l4 4l2 4l-8 5l4 10q6 5 8 8q2 7 10 10v4l6 9l-2 6l-2 2h-8v2l-1 3q3 -2 3 -1l14 -2q2 -1 7 2l4 2l6 -2l6 -4q3 11 6 0.5t12 -4.5l13 -4h8q1 -3 6 -3t6 3q2 1 2 0l4 -3q5 1 9 3v-11v-4q-2 -2 -2 -8l2 -2l4 -6v-2h-9q-16 0 -16 -19q14 -7 21 -14q3 -4 10 -4 q9 0 10.5 -1t2.5 -8q1 -3 1 -5q10 0 17 -5q3 -7 12.5 -10.5t17.5 0.5q6 0 6 6q0 2 3 7t4 8q4 12 4 16q11 6 0 14q7 0 0 7v14h-4v4h4q3 8 0 8q12 0 4 7q-1 1 -2 1q5 10 6 13q2 6 2 10q0 2 6 6l2 -18q5 -10 8 -13l4 -8q0 -16 4 -24h9q2 0 6 4l10 -15q-4 -8 4 -12v-10 q0 -4 1 -7q0 -2 -1 -3q8 -2 8 -9v-14q0 -6 3 -9.5t3 -4.5q0 -8 19 -13q4 0 8 -4q2 -5 12 -8l6 -6v-8q4 -9 9 -15q0 -4 4 -14q7 4 9.5 3.5t2.5 -7.5q6 0 7 -0.5t1 -5.5q0 -7 4 -13t9 -6l6 -8q2 -4 5.5 -6.5t4.5 -3.5t0 -4l8 -4l4 2q-2 -4 -2 -10q1 -7 -2 -27l6 -12 q0 -6 -2 -8q6 -3 6.5 -3.5t-0.5 -5.5l-2 -4q-2 -4 -2.5 -7t2.5 -7h-4q0 -8 -2 -10q-1 -3 -2 -9t-2 -8v-16l-2 -2q-9 -3 -4 -12l-8 -9q-6 -4 -10 -12q-6 -16 -9 -20q-2 -2 -2 -11v-2l-10 -16l4 -2v-6l-10 -17v-6l4 -2q-4 0 -4 -4q-4 -8 -10 -8q-22 5 -39 -17h-4l-4 -2 q-5 -2 -5 -4q-2 1 -6 2t-6 2q4 0 -1 4l-5 3h-14q-6 0 -6 -7q-7 -5 -13 -2q-13 16 -26 9q-2 6 -11 6q-1 1 -4 2q-12 7 -14 16q-2 2 -2 6q2 10 -2 23q-4 7 -14.5 8.5t-14.5 -4.5q-9 -6 -14 -4q4 0 4 14h-8l2 4h2q5 0 7 4.5t-1 8.5l2 4q0 2 4 10.5t4 15.5q-5 2 -11 -1t-7 -9 q-1 -1 -7 -5t-8 -7q-6 -4 -10 -15l2 -2l-6 4v15q-1 2 -4 4t-4 3.5t0 4.5q0 6 -6 6q-6 6 -6 8t-4 7t-5 6l-14 6l-2 -4q-2 0 -4 2q-4 0 -11 4.5t-10 5.5q-6 6 -8 -2h-16q-8 0 -12 -2q-5 2 -13 2q0 -9 -10 -12q-4 0 -11 -1t-11 -1q-2 -1 -3 0t1 2q-3 1 -6.5 0t-5.5 -3 l-4.5 -4.5t-4.5 -3.5q-8 -4 -14 -4q-5 -1 -8 -3.5t-4 -5.5l-1 -3q-1 -1 -2 -4t-2 -4q-15 -4 -22 -2q-3 0 -8 1t-7 1h-10q-6 -2 -20 -2q-3 -19 -11 -8l-18 -19l-4 2l-6 6v-4q-2 4 -8 0q-5 -2 -13 6q-2 4 -7 7l-5 2q-7 4 -4 10h6l4 4v12q0 4 2 8q3 3 3.5 9.5t-1.5 7.5 q-1 1 -4 9.5t-8 12.5q0 4 -1 12.5t-1 12.5q0 6 -4 8q-2 1 -2.5 3.5t-1 6.5t-2.5 7q-6 4 -6 8q2 8 -7 22l-8 13zM199 768l2 2zM231 799v4v-4zM408 823l2 6zM408 834v2v-2zM411 378h2q3 -1 5 -1l-2 -4v-4q-6 9 -5 9zM418 377h2h-2zM512 856v4l2 -2zM551 252q-2 4 -2 7.5t2 6.5 l12 -6q10 -7 19 -4q2 2 10 3t12 5h6l-2 -14q-2 -6 -2 -10v-2q-7 -7 -4 -17q2 -2 2 -6h-2q-10 3 -16 -6l-2 -4q-7 4 -11 0l-2 4q0 5 -6 8l-4 6q-5 24 -10 29zM573 305v2q-2 2 -1.5 3.5t1.5 2.5l3 -4zM618 684l3 4h2zM635 338q-1 2 -1 3.5t1 2.5v2l2 -4zM692 592l2 6l-2 2l4 4 q4 -4 -2 -8q2 0 -2 -4zM711 186q2 9 6 9zM717 195q2 6 8 18q7 2 16 16q7 11 13 13q9 0 12 6q10 3 12 8q4 2 8 6l5 6q10 10 10 19l2 4q10 6 10 20v4l4 2q1 -1 3.5 -3t2.5 -3t-2 -2l6 -4h7q0 1 2.5 2.5t3.5 3.5q2 2 2 0v-2h2q-6 -9 -2 -16q-8 -16 -15 -23q-2 -2 -2 -4 q-8 -8 -2 -18q-3 4 -9 1l-5 -3q-1 0 -6 -2t-8 -6q-1 -3 -2 -11t-2 -10l-5 -12q-3 -1 -3.5 -4t1.5 -4l-4 -2l-10 -11q-12 -4 -22 -4q-7 0 -7 4l-6 4q-4 4 -8 0q-4 -2 -10 7zM754 174v2l16 8l14 4zM817 317v5h4zM825 248l2 2l2 -8zM825 446v11l6 -13zM834 444q1 0 3 -1t3 -1 q5 -2 8 -12q4 -8 4 -12v-8l4 -4q4 -4 10 0l2 2q9 -9 6 -19l13 -6q5 -6 12 -4t10 8h9q-9 -9 -3 -16l-2 -2q-3 -1 -4.5 -2.5t-2 -3.5t-1.5 -3h-4q-4 -2 -8 -6v-14l-6 -8q-7 -15 -15 -25q0 -2 -8 -6l-4 2v6q6 12 6 23l-8 8q-3 2 -6 3.5t-6 2.5t-4 2l2 6h2q5 1 7.5 4t3 4.5 t-0.5 5.5v5l2 3q2 4 2 9q0 6 -4 14q-1 1 -2 5t-2.5 7t-3.5 5q0 4 -4 6q-10 13 -10 22zM915 371v2v-2z" />
<glyph unicode="L" d="M2 487q4 -1 6 1t2 4v4v18v8q2 12 6 19q1 4 4 6.5t8.5 5t8.5 4.5l20 14v9l-4 4v-2l-4 4h-10l-6 -6h-6q2 -2 8 2h4q0 10 -6 16l-15 16q-4 4 0 9q2 1 6 7l3 5l-4 -2q2 1 7.5 6.5t10.5 7.5h6h10q-1 2 -0.5 2t4.5 2t5 2l8 4q6 0 10 -8q3 -18 25 -18l4 -2l2 4q-4 -3 -5 -7.5 t0 -7.5t3 -7t2 -5q3 -7 2 -10q-2 -3 -1.5 -7.5t3.5 -4.5q4 0 0 -4q-3 -8 6 -17q0 -4 12 -8l4 -2l6 -2q11 0 11 10l2 29l14 6q9 5 6 14q-3 3 -3.5 7.5t1.5 5.5h4q2 3 3 6v1l1 -1h19q8 0 16 -8q2 -1 8.5 -6t12.5 -5l8 -6l6 -2l4 2q0 6 -2 6q11 9 23 29q-8 4 -19 4q-1 2 -2 2h8 q-4 6 -2.5 10t6.5 4h9q10 5 14 9q6 3 6 6q1 3 1 7t0.5 6.5t2.5 4.5q0 1 2 2l5 2.5t5 3.5l9 2q5 4 12 12t8 9q3 10 4 10q0 4 2 8l8 4l5 5l3 -5v-10q11 -2 23 8l6 5q14 7 15 8q2 0 3 1t1.5 2.5t1.5 2.5q0 5 6 2q10 0 14 12q0 2 -2.5 5.5t-3.5 4.5l-16 13l2 -6l4 12 q16 -16 18 -17l-2 -4l4 -6q3 0 8 -1t7 -1q3 0 6.5 -4t3.5 -10q4 -9 16 -6q1 1 5.5 2t5.5 2q11 7 14 6q3 -3 6 0l2 -4l6 -4l2 2l6 6q5 0 17 6q-2 3 -4.5 5.5t-4.5 3.5t-3.5 1.5t-2.5 1.5q-9 9 -14 9q-2 0 -8 6l2 -4v2q10 7 23 10q4 4 6 4l-2 -4h-13v-10l4 -4q1 0 4 -2.5 t5 -2.5q4 0 10 2.5t10 2.5q13 -3 19 10l4 2q4 2 12 2q8 8 8 16v2q1 3 -1 4q-1 0 0 1l3 1q0 7 4 13q2 1 2.5 3t0.5 3.5t1 1.5l9 8l10 6l2 -2q5 14 11 14q2 0 5 -1q6 -2 6 -7q3 -3 -2 -6l-4 -2l-4 -4v-6q7 -11 10 -12q4 2 15 2q6 0 4 -6q-1 -6 0.5 -12t1.5 -9q2 0 4 -1.5 t5 -4.5t5 -4q-9 -4 -7.5 -13.5t-2.5 -9.5q4 0 10 2l2 -4q-2 -3 4 -14q1 0 1.5 -1t3.5 -2t8 -1l8 -12v-4t2 -4t6 -1q-3 -7 8 -18v-6q-2 -8 4 -19q3 -3 0 -10h6l-4 8q0 4 -3 7.5t-5 3.5q2 -1 2 -5q4 13 -10 13q-8 8 -10 8q-3 4 -21 16q-7 2 -10 15q0 8 -6 20q-17 0 -23 -6 q0 -3 1 -8.5t1 -7.5q1 -1 13 -7l-9 -8q-4 0 -7.5 -2t-4.5 -3.5t-3 -5.5t-3 -5l-4 -4l-4 -12q-2 -3 -2 -9v-22q-5 -10 6 -10q3 -2 7.5 0.5t4.5 5.5h6q15 0 11 10l2 4q8 -12 8 -16q6 0 12.5 -4.5t7.5 -4.5l4 -2q-6 -13 15 -20q1 0 0 1t-2 1q-1 -3 -0.5 -6.5t2.5 -3.5 q1 -3 8 -4.5t8 0.5q8 5 8 18q0 1 0.5 2t1.5 3.5t2 4.5v4l2 2q-2 1 1.5 6t-1.5 7l3 4v4q-7 -21 -7 -27l4 4q0 2 -4 -3q-2 -2 -2 -3q4 -2 2 -5q-2 -4 -4 -9q0 -6 2 -8t0 -2q-4 -3 -4.5 -8.5t2.5 -6.5h-4q-2 -2 -6 -2l-4 -6q1 -1 1.5 -2.5t1.5 -3t3.5 -3t5.5 -1.5q10 -3 10 -12 q0 -1 5 -11q0 -4 2 -6v-14l-2 -4q-10 -5 -13 -17q0 -4 -6 -4q-12 -8 -12 -16q-4 -2 -4 -12q2 -2 -2 -3q-1 -1 -2 -1v2q-2 4 -2 8h-9h-3l-1 -6v8q0 -4 2 -5t4 3l7 14q0 7 16 19q7 7 4 10l4 8q2 2 2 8l-4 -2q8 4 8 14q-5 9 -8 11l-6 12q-3 0 -5.5 1t-3 2.5t0.5 2.5q6 16 -6 23 q-2 1 -9 8q0 6 -10 11t-14 1q6 -9 6 -16q2 -2 2 -15q1 -2 2 -8.5t2 -9.5q0 -16 -14 -16h-4l-4 -4l-2 -7q-4 -9 2 -12v-4q-8 -6 -7 -12.5t11 -7.5q3 -1 5.5 -3t5.5 -6t5 -6l-2 -4q-1 -1 -4 -3t-4.5 -4t-1.5 -5v-8q2 -2 2 0t-1 4.5t-1 3.5l-4 12l-2 2l-6 8h-13v9l-4 4h-6 q-3 -2 -8.5 -7t-7.5 -6q0 -2 -2 -6h6l-8 12q-4 4 -11.5 -4t-7.5 -16q15 -10 35 2q2 -2 -2 -6q-9 -5 -12 -16l4 -7q4 -6 10 -6l6 -8q5 -2 8 -3q-2 -2 -2 -7q4 -4 6 -4l-2 -15l-6 -24l-2 -4q-5 -4 -12 -17q-2 -1 -9.5 -5t-11.5 -7l-16 -8l-4 -2q-14 -7 -2 -15q2 -3 0 -6l-4 -2 q0 -6 -4 -6l-4 2l2 8q1 0 3 1.5t2.5 4.5t-3.5 7q-4 8 -15 4q-11 -5 -18 -23q0 -6 4 -8q6 -9 16 -12q11 -4 19 -25q4 -4 -4 -12q-8 -4 -17 -4l-4 -8q0 -2 -1.5 -3.5t-4 -4.5t-4.5 -5l2 2v-2l-2 2v9q-14 3 -18 10q-4 5 -8 6.5t-11 0.5l-6 -1q-1 -2 -1.5 -3.5t-0.5 -4t-2 -4.5 v6l-4 20q4 -40 0 -41v-1q1 -1 2 -3l10 -12l23 -12q2 -1 6 -13q0 -6 2 -8l8 -8q-4 -2 -8 -10l-5 -2q0 -3 9 -8q1 0 2 -1l4 -4l8 -2l2 6h4q10 -13 19 -4l2 1q0 -2 2 -5l2 4q-5 -3 -6 -2l-3 2q-3 1 -6 0.5t-6 -4.5l-2 -4v-18q4 -4 13 -4q10 4 16 -2q16 0 21 6q0 3 6 0h18 q4 2 8 0q8 -8 13 -6h20q8 0 14 4h5q6 0 10 2q4 0 20 4l21 8h6v4h10v4q4 0 4 -2h10q8 4 11 4h6l-2 6l-4 -4l-9 -4q-12 -2 -26 -16q-8 -4 -12 -12l-5 4v2l2 2q3 3 3 10v6q-2 -3 -6 -6t-5 -4q-4 -2 -12 -2l-6 -2q-8 -3 2 -12l-4 2q-5 -2 -12 0q-6 9 -19 2h-18q-2 0 -4.5 -1 t-3.5 -1q-5 0 -7 -2q-2 1 -4 1.5t-3.5 0t-2.5 -1t-2 -0.5h-37q-6 0 -14 -1.5t-10 -1.5q-19 13 -21 13t-5 1t-5 1q-2 3 -7.5 6.5t-6.5 5.5q-4 -1 -7.5 1.5t-7 7.5t-6.5 7q-2 3 -8 9l-10 14q-3 1 -5.5 3t-6 5t-5.5 4q-4 0 -6 2q-9 0 -6 11q1 -3 5 -3.5t5 1.5q3 3 6 -3 q2 -4 7 -6l4 -2q12 -8 18 -8q2 -3 4.5 -3.5t4 0t1.5 1.5v8l-2 4q-2 1 -6 13q-1 5 -3.5 8.5t-8 8t-6.5 5.5q-4 2 -2 6q0 29 -9 35q-1 2 -2 6t-2 6q0 5 -3.5 8t-8.5 -1l-8 -7q-6 0 -6 4v13q-3 6 -11 14q-12 8 -12 12t-3 5q-2 -1 -3 -5l2 9l-12 6l-6 -4v-7l-6 -2h-9l-3 -2 q-4 -1 -5 -2.5t0 -5.5q-10 -7 -14 -8l-6 -4q-10 -5 -13 -8q-6 -6 -10 -6l-10 -5q-8 0 -8 -10l-9 -28q-5 -9 -8 -11l-12 -8h-2l-10 19l-6 18q-2 9 -11 23v4q0 14 -2 20q0 1 1 4.5t1 5.5v9l-4 4q-6 0 -10 -2q-2 0 -6 4l-6 8l-2 4l-6 12l-3 6q0 9 -6 9q-8 4 -16 4q-19 0 -27 6 l-20 10l-8 8q-4 1 -6.5 -3t-2 -9t4.5 -8l8 -8q6 -9 0 -15l-6 -6q-2 -2 3 -4q1 -1 1.5 -0.5t-0.5 1.5q-11 5 -17 -3q0 -1 -4 -2t-5.5 -3t1.5 -7l-4 6q-1 -1 -5.5 -1.5t-8.5 -2.5q-10 4 -29 0q-8 -4 -16 0h-27q-2 -1 -7.5 0t-8.5 0q-9 0 -19 10l2 10q4 4 4 10v11q0 3 -1.5 6.5 t-1.5 5.5t3 4q0 16 -8 21v10q0 1 1 3t1 3q3 3 4 7.5t-1.5 8t-8.5 4.5zM88 342l6 2l-2 -2l2 -2zM311 760q7 0 19 8q2 1 8.5 4.5t9.5 3.5q4 0 11 2t9 2h3l2 2q0 -6 -5 -6q-9 2 -26 -8q-6 0 -12 -6q-8 -5 -8 -14l-7 2zM324 262l2 4q7 -5 10 -18l-2 -2q-6 0 -8 2q-5 3 -5 7 q0 3 3 7zM368 807q-2 2 -2 3.5t2 2.5q1 -4 2 -4l5 2l4 -4q-4 0 -4 2q-2 0 -4 -1t-3 -1zM592 862l2 2l4 -4l-2 -2zM600 207q-1 1 -1 3q0 4 3 11q0 2 2 0q12 -4 17 4q1 2 4 5.5t4 5.5q10 8 28 26q5 2 5 8q6 6 16 -6l1 3q4 -3 9 -3v2q-3 -2 -4.5 -4t-1 -3t-0.5 -1q-6 -3 -5 -10 t7 -12l4 -3l-4 -2q-2 -4 -1 -4l-1 -10q-2 0 -4 -2q-8 -5 -8 -20q0 -5 -4 -5q-6 -4 -13 3h-6q-7 -7 -14 -7q-18 2 -21 7l-6 12q-2 0 -6 2zM664 418q0 4 4 4q2 -2 2 -6v6q3 -23 0 -21q0 -2 -2 -4l4 5q0 -2 -4 -3q-7 5 -7 11q0 4 3 8zM668 289q6 12 16 22q-6 -12 -16 -22z M676 350q4 2 4 12q-2 4 -2.5 6t1.5 3q1 0 3 0.5t4 -0.5q2 -2 10 -4l4 -7q-10 0 -12 -7t2 -11q7 -7 10 -2l2 2l11 -6q8 -5 14 -2q2 0 0 2l4 -6q-3 -4 -1.5 -8.5t3.5 -5.5t-2 -3q5 0 10 1q3 0 4 -4v-1t7 -8l-2 -4q-5 -8 -7 -8q-4 0 -12 4q-6 8 -12 2q-2 -2 -2 -4h-2l6 6 q2 0 2 10h-10q-2 0 -2 6q-6 6 -4 19q-11 -4 -11 -6q-2 3 -5.5 6t-3 3.5t2.5 4.5l-12 4q-2 4 -2 6zM700 209v2v2q7 7 2 12q-4 4 5 8q3 5 12 5l24 6l5 6l4 2l-13 -10h2q-4 0 -5 -5t1 -6l-2 -2l-6 -4q-12 -6 0 -18q5 -10 10 -14q-1 1 1 3q-1 0 -3 -1l-2 -2v2l-8 2l-8 -2 q-11 -11 -2 -15v-1q1 0 4 3h-10q-6 2 -2 11v6q-9 0 -9 10zM752 225l4 2q4 0 7 1l3 1v-6q10 -3 10 -4l-4 -4q-4 0 -4 12q-4 1 -6 0.5t-4.5 -1.5t-3.5 -1h-2zM774 258q2 2 2 6l2 2l4 2l2 2v2v1q-1 0 -4 -5t2 -6q3 -5 -2 -10v-12l-4 4v2q0 6 -2 12zM788 225l15 6l2 5l-2 4l2 4 q8 8 -2 12l2 -2l10 4l6 2h4h13q-2 0 0 -2q0 -7 4 -8q6 -6 12 -4q6 0 6 12l-4 6q-4 3 -4 4v2l6 -2l8 -2q0 1 8 4h5q4 0 13 1t13 1l2 -4q4 -8 4 -10v-10q0 -4 2 -8l2 -4v-15l-2 2q-14 8 -22 -4v-6q-3 3 -2 6l-2 2q0 2 6 8l8 -15q8 0 -4 13l-4 4q0 2 -3 5.5t-7 3.5h-35v-4 q-8 0 -8 -5l-9 5l-6 4q0 4 -6 10q-7 0 -10 -2q-4 -2 -6 -8q0 -3 -2 -2q0 -9 4 -9l-17 -2v-2z" />
<glyph unicode="M" d="M4 432l2 21q0 2 4 14q2 -2 2 -4l2 -8l2 -2q-10 -10 -10 -27v-2zM16 453l2 2v-4zM20 604l31 35q29 37 62 70q6 12 18 24l10 -18q0 -9 6 -15q8 11 17 11l2 -4v-7h20q4 0 4 2l5 -4q0 -2 6 -8l10 8l-2 -2q0 -4 2 -8v-4l6 -2l6 2q0 -8 4 -12q2 -1 4 0q2 2 3.5 0.5t5.5 -6.5 q4 -8 10 -11q0 -4 8 -8q2 -4 8 -4l4 4q0 3 -1 6.5t-1.5 5t-1 3.5t1.5 3.5t6 2.5l-8 12q-2 2 0 4q8 0 3 8q-1 1 -1 2l-4 2q-10 -4 -20 -2l-2 2q-2 0 -2 6q0 2 -1 7t-1 8l-2 2q7 13 16 18q4 12 4 13q2 6 8 4h4q5 0 11 -15l2 2l4 -2l12 -22q10 -10 14 -10h4q4 0 4 -2q3 -5 7 -5 t6 5q4 4 12 8q1 2 4 1.5t4 -3.5v-4q-5 -4 -6.5 -8t-0.5 -11.5t1 -9.5q0 -8 2 -10q-3 -3 -1 -9t5 -6h-2l12 -8q3 -4 2 -5.5t-10 -4.5q5 -7 2 -12q-4 -3 -5 -3t-7 3l-8 2l-4 -7q5 -10 14 -12l2 -2q6 -6 14 -6h17q2 3 3.5 9t2.5 7q-1 3 -3 4.5t-4 2.5t-3 2h-2l6 12q2 4 6 2 q2 -4 14 -16l2 -3h5q11 5 2 17q-10 5 -13 10q6 6 2 12q2 0 2 5q2 4 2 16q-13 -4 -16 -10q-4 -2 -6 2q-3 7 -10 10l-7 14q7 4 13 15q2 4 8 0l-6 -2h22l4 6l5 2h2q2 0 6 -1t6 -1q7 0 4 -6q-1 -2 -3 -6.5t-4 -6.5t-5 -2q-10 -10 -2 -22l6 -13v-6q8 -6 4 -8q0 -6 2 -8l12 -10h8 q9 -9 11 -15h-2q-5 -9 4 -16q5 -3 6 0q2 2 6 20l2 9v8q-7 2 -4 16q-3 -2 -8 1.5t-10 0.5q-1 2 -3 3.5t-2 2.5v4.5t-4 8.5q-4 3 -4 4v20q0 12 10 19l5 -2q0 -5 2 -7l6 -2q12 17 37 13q2 0 6 -4q2 3 1 -1q-2 -7 1 -8q8 -4 12 -8l8 -4q2 -3 6 -3t5 3q3 2 6 -4h4q3 -4 14 -4 l2 -12q3 5 6 6l2 2q2 0 6 -2l-6 -6v-4h4l7 2q-1 -1 -7 -13l5 -6h12l4 -4h6l2 4q1 1 3 1l1 -1q2 -4 15 -8h12l4 -2q-5 -9 0 -14q-5 -5 -2 -11q0 -4 2 -4q-3 -2 -10 0q0 2 -6 4q-2 11 -14 1q-9 -8 -5 -13l12 -6q0 -11 1 -12l3 10q5 2 13 -6q2 -4 8 -4q4 -4 2 -9v-8q-5 0 -5 -5 q0 -4 -1 -7l6 -4l2 -4q-1 0 -2 -1t-2 -1h-16q-5 2 -12 2.5t-9 1.5q-4 0 -5.5 0.5t-2 0.5t-1 2.5t-1.5 4.5q-3 -2 -12.5 5t-20.5 5v-6l-2 2l-6 -2l-4 -4l-12 6q2 4 6 8h2q13 -3 20 13q-1 3 -3.5 6.5t-2.5 5.5l4 8q4 11 -2 19t-14 16h-10q-3 -3 0 -6l6 -17q1 -3 0 -3.5 t-9 -2.5q-6 -3 -6 4q0 3 1 9t1 10q-3 1 0 10q-5 7 -14 12l-2 -4q-5 2 -10 -2q0 2 -4 4q0 5 -4 0l-2 -2l-5 -2q0 -9 5 -14h2v-21l6 -12l2 -2l-8 -14q-14 -11 -21 -4q-1 -4 -1.5 -6.5t1.5 -5.5l3 -4.5t3.5 -3.5t3.5 -3q3 -1 12 -4.5t11 -5.5l4 -6l4 -2h6q8 0 0 -4h-22 q-1 -1 -3 -4t-3.5 -6t-2.5 -7q-4 -2 -6 2q-3 9 -12 4q-2 0 0 4q0 3 4 7v8l-6 2q-6 0 -6 -4q-7 -11 -10 -11q-7 0 -11 -8q-2 -2 -2 -6q0 -6 -2 -8l-4 -2l-14 -12q-4 -7 -8 -21q-4 -8 -4 -12q-2 -6 -2 -17v-4h4q0 -6 7 -10q4 -2 7 -4q0 -2 1 -4.5t1 -3.5q0 -2 1 -4.5t1 -3.5 q0 -7 4 -11l8 2q14 0 17 -2q2 -4 8 -4q2 -2 14 -8q4 -6 19 -10l4 -2q6 -2 14 -2h27l-2 -6q-1 -6 2.5 -15.5t3.5 -11.5h8l10 -2v-4q0 4 -4 0h-6q2 -9 12 -18t13 -15q7 9 12 25l1 4q1 4 0 6t-5 4l-4 8v2q-3 13 -15 21q0 2 2 4l2 2q4 0 7 2t4 5l2 3q4 7 8 21q0 27 -25 38 q-8 3 -8.5 4t2.5 9q3 13 -2 26l-6 11q0 10 -4 14q0 4 6 10h6q14 -3 21 6q0 2 2 0l18 -6l1 -12q1 1 1 6l12 -2q4 2 15 2v-10l-2 4q5 -20 12 -25l2 -4q13 0 14 -2q7 0 7 2l4 2l6 15q0 5 -1 12.5t-1 11.5l2 4q3 -7 16 -16l10 -4q1 -4 6 -6l5 -2l8 -7q3 -2 14 -16q8 -8 17 -4 q5 -8 20 -4l2 4q0 -3 1 -3q4 0 3 0q1 0 0 -3l4 8l1 1l1 -1q4 -2 4 -10q1 1 4 -1t7.5 -3t11.5 2q2 2 8 -4q0 -6 4 -6q8 -4 6 -11q0 -6 7 -6q6 0 6 -6v-4q0 -10 4 -14h8q3 3 6 -11v-2q7 8 10 13l4 4q8 2 17 -15q6 12 10 4q3 -6 12 -6q5 -5 5 -14l-3 -6q0 2 -6 2l-2 -2v8 l-14 -8v-8q-4 -4 -4 -7h-4q2 2 2 9l-6 2q-7 0 -7 -4q-3 -9 -12 -9q-5 0 -7 -1.5t-4 -4.5t-3 -4q-3 -3 -6 0q-2 0 -2 2q3 7 -2 12v17v4q-7 14 -7 25v14q-7 3 -12.5 -3.5t-5.5 -12.5q-5 -22 -6 -23q-3 -9 -19 -12q-1 -1 -4.5 -2t-5.5 -2l-2 -2q-1 -4 0 -5.5t1.5 -1.5h8.5l5 -2 q4 0 4 -4l-25 -6q-1 -6 2.5 -10.5t3.5 -5.5q1 -2 0.5 -3t-1.5 -4.5t-1 -5.5h4l4 5q-6 -25 9 -25l8 4q12 -7 20 8h19v10q0 5 -2 5q6 0 6 -2v-5l10 -4q2 -2 -2 -6q-13 -10 -4 -14l-4 -4q-4 -2 -8 -10q-7 -7 -15 -7l2 -6q2 -3 -2 -7q-2 -3 -4 -5v-10q-3 -8 -12 -8q-6 0 -6 8 q-2 2 -6 4.5t-7 5.5l-4 -8l-14 14q-2 2 -4 2q-4 13 -8 17q-3 12 -15 4q-5 0 -8 -7h-4q0 -16 2 -24q0 -14 -6 -16v-3q-7 -9 -18 -12q-20 -5 -23 -8q-8 -1 -14 -14q-2 -1 -3 -3l-1 -1l-9 -9l-4 -2q-6 0 -18 -8q-4 0 -4 -4q-2 -4 -11 -4l11 -6q8 -8 -2 -8q-7 0 -11 -7 q-2 -1 -5.5 -2t-4.5 -2q-4 0 -8 -3t-6 -3q-2 -8 -8 -8h-2l-2 2q2 -2 2 0q7 7 2 16l8 7v12q-2 2 -2 8q7 4 0 14q-4 9 -6 15q-9 -12 -19 -2q-1 1 -7 3.5t-9 2.5q-1 0 -2 1.5t-2.5 4t-3.5 4.5q0 6 -2 8q-4 8 -13 8q-6 0 -8 5q-8 8 -12 8h-17q-4 -4 -4 -8h-2v2q-11 -11 -20 -9 h-8l-2 -2q-14 3 -19 7q-3 4 -10 4q0 -2 -8 -2q-2 2 -6 2q-2 6 -9 6h-34q-16 0 -48 4h-4l-71 10q-8 4 -17 4q-2 1 -6 2t-6 2q-10 0 -22 4q-5 2 -15.5 5.5t-15.5 5.5l-19 6l-32 12q-6 2 -18.5 7t-18.5 7l-11 2l-2 5q3 2 2 3l3 1q0 6 -7 8q-2 1 -2 0h-8v-21l-4 2q0 7 -2 11 q-7 7 -10 8v20q-2 2 -4.5 6.5t-5.5 8.5l2 10q0 -7 8 -4q0 14 4 20q3 3 4 5.5t0.5 4.5t-1 3.5l-1 3t1.5 2.5t6 2q-12 0 -16 2h4l10 10q-6 6 -10 8q4 0 4 6l-2 2q-1 1 0.5 5.5t-0.5 9.5q5 -3 9.5 1t4.5 7q9 6 4 20q-8 5 -8 23q0 3 2.5 10t3.5 10q0 19 -2 29q0 8 -9 7 q-6 -1 -5 -5q-4 -2 -8 -2q0 23 2 31l-6 12zM25 420q1 0 2.5 -1t3.5 -1q-2 -2 -2 -4zM25 438v6l6 -2l-2 -2v2zM27 432q-1 1 2 8v-4q-2 -2 -2 -4zM29 436l2 2l4 -2l-4 -2zM295 791l10 4q1 1 5 1t5 -1l2 -2v-15q0 -5 7 -12v-2l3 -3q3 -3 3 -6v-5h4l4 4v14q-3 3 2 6l4 -4 q-1 -6 4 -12.5t6 -9.5q-6 -9 -18 -7l-12 -2q-7 -4 -11 0v9l-4 4q-1 0 -2.5 1t-4 2.5t-5.5 2.5l2 6q-3 3 -5 2l-1 6l-6 4q-2 4 -2 7q0 8 10 8zM330 793l2 2q5 4 5.5 8t-1.5 6l-2 2q1 1 10 -2l4 -2l-2 -6v-4q-3 0 -5 -1.5t-3 -4.5l-2 -3q-1 0 -6 5zM362 799v4h3q0 -1 -3 -4z M365 803q4 4 0 6l2 4v2q2 4 6 2q1 -2 2.5 -3.5t1.5 -2.5q5 -8 18 -8l8 -2l5 4q0 12 -7 16q-2 0 -2 4q4 4 4 9q-1 1 -0.5 3t2 4t2 7t-0.5 12l10 2l4 10l8 7q8 3 18 18q3 1 3 2q13 3 20 3q3 0 4 -1q8 0 12 -4q1 0 2.5 -1.5t3 -4t3.5 -4.5l-2 -8q1 0 6 -5l-2 -2l-9 -6 q-2 -4 -2 -10q-9 -8 -6 -16q0 -4 -2 -6q-4 0 -5.5 -2.5t-0.5 -6t4 -6.5q4 -2 2 -14v-4q-2 -4 0 -13q-2 -4 -2 -14h1l-1 -4q-8 -10 -6 -12v-6q13 -6 4 -15l-4 -4q-13 0 -16 -6q-13 0 -21 2l-8 -2q-8 0 -10 2q-8 -3 -13 0l-4 8l-4 2q-6 0 -10 -6q-4 0 -6 4l-2 6q-2 1 -5 2 q-5 3 -3 5q1 1 3 4q3 2 5 4q0 17 18 6l-2 2q5 4 6 4q2 5 9 -2q8 -2 16 -2h4v4q7 3 7.5 9t-5.5 9q2 7 -2 11h-4l-6 -2q-10 0 -17 -9q0 -3 -6 0h-8q-8 10 -16 13zM449 649q2 0 2 -2zM451 709l2 4zM500 504v2q2 10 8 10q8 0 2 -6v-2q-5 -6 -5 -6.5t-5 2.5zM530 512h5q0 -2 2 -4 q0 -6 -2 -10q-7 10 -5 14zM539 532l2 5q4 -4 2 -7q-4 0 -4 2zM846 293l4 2l4 -2q-2 -2 -4 -2zM915 375z" />
<glyph unicode="N" d="M4 803v14q8 4 10 6q2 8 8 2q0 -1 1 -2q5 -3 10 -12l4 8q0 1 0.5 1.5t3.5 0.5h18q4 0 4 2l5 2q1 4 2 4q-2 0 4 -2h4l6 -10l6 -4l2 1l-2 -3l-2 -12q1 -3 -1 -5.5t-4.5 -4t-7 -4t-7.5 -5.5h-2q-9 0 -11 -4q-5 -5 -18 -2q-1 3 -4 5t-5 2t-5.5 -0.5t-4.5 -0.5h-4q-2 4 -2 11v6 q-4 0 -6 2zM7 272q1 0 3 2q0 3 8 11q2 6 2 14l-2 12q6 3 2 11q0 8 9 14q0 2 2 5.5t2 6.5h2q10 8 10 27q10 6 2 14q-4 8 2 8l12 6q5 2 9 0q5 -8 12 -8l4 -2l4 -4h12l4 -4q1 0 4.5 -2t4.5 -2l28 -10q0 12 7 14l2 4l2 8l6 9q7 5 4 14q-5 8 -2 18q3 4 0.5 10.5t-8.5 6.5 q-2 0 -4 8q-4 0 -5 1t-3 4.5t-5 6.5l2 4l23 -6l2 4h4v2l-4 4q7 5 16 2l2 -2q2 -4 8 -6l7 -2q2 -2 12 -2q1 1 4.5 2.5t5.5 3.5q4 0 6 2.5t4 1.5v4q17 3 31 9v8q4 4 4 6l2 2q8 4 10 4v4q3 0 9 4q0 -4 8 -4q3 0 3 -4q-1 -2 1 1q1 1 3 5l1 2q0 4 4 2q9 -12 19 4q0 10 -7 15 q5 5 2 16l-4 6v2l4 2l3 9q0 10 6 16h12q-1 1 1 2q1 1 1.5 1t1.5 1h6l2 -4q1 -1 -0.5 -1.5t-3.5 -3t-2 -5.5q2 -3 4 -15q10 0 12 2h11q6 6 6 13q0 6 -4 8q-4 4 -2 10v25h-4v8q-4 -2 -7 -2l-16 -2q-3 -6 -8 -6q-4 -4 -16 0q-4 0 -7 6v18l-2 2t-0.5 1t1 0.5t1.5 0.5l7 9 q2 6 -3 14v4q7 18 17 20q5 0 8.5 4.5t3.5 10.5h2q10 -5 23 4v10q9 3 16 10q11 8 19 19l-2 4v4q14 14 16 23q0 -5 8 6l2 4q1 0 1 1t1 1q4 2 7.5 4.5t7.5 5.5t6 4q15 -10 20 4q6 1 10.5 6.5t6.5 6.5q1 2 1 3q0 -4 5 -10q8 13 14 11t10 -2t4 -7v-8q6 -6 15 0h6q-2 -3 -1 -5.5 t2 -3.5t3.5 -2t3.5 -1q4 0 6 -2q8 -2 21 -2q2 2 4 0q3 -4 18 -14q-7 5 -4 6q4 2 7 -7q2 -6 1 -14q0 -6 -12 -14q-2 -2 -6 -2h-21v-6q4 -6 0 -21h11v-4q12 0 16 -4h4l2 8q-1 0 -1.5 1t-2 3t-4.5 4q-3 1 -6 11q7 -5 16 -7q2 -3 8 3l2 6v8q6 13 9 14l2 2h8q0 7 -4 16.5t-4 10.5 l-4 6l-3 2h11l10 -10q-5 0 0 -4l2 -2q2 -3 8.5 -2t9.5 4l7 10q4 8 4 16l2 4q2 1 6.5 6t7.5 7q0 -1 1 -1.5t3 0t6 3.5q0 5 11 12v2q0 2 2 1q1 -1 2 -1q2 2 6 2l-2 6l-6 4q9 0 16 7h18q9 -9 17 -21q1 0 2 -1t4 -3l6 -4v-4q-4 -6 -4 -15v-10q0 -3 1 -7l-1 -1q0 -11 -4 -23 q0 -8 2 -14q3 -4 6.5 -12t5.5 -10q2 -6 5 -9.5t7 -4.5l3 -1q4 4 4 0l4 -18l12 -17v-10q0 -10 10 -10v-35q4 1 11 -0.5t8 -1.5l4 -2l6 -8q-1 0 -18 -10q9 -7 16 -7q9 0 12 -8q0 -4 6 -16q6 -8 15 -2q6 3 6 -4q8 -5 14 -2h6q7 0 11 -6q0 -2 -5 -7l-8 -6q-5 2 -8 0.5t-5 -4 t-3 -2.5h-23l-4 -6q-2 -9 -16 -14q-6 -4 -21 0q-6 6 -8 6l-8 -8q-6 -3 -12 -7q-2 -4 -11 -4v-6q-8 -16 -8 -39q-2 -8 8 -22l9 2v-10q5 -9 12 -13l10 -4l2 -2q-3 -8 -8 -16l-12 -21q-3 -6 -8 -4q-4 1 -17.5 4.5t-19.5 5.5q-9 3 -19 3q-24 6 -32 6q-11 0 -19 -4q-3 0 -8.5 -1 t-7.5 -1q-13 -2 -27 -23q3 -2 9 -3.5t7 -2.5q-4 -8 -6 -10l-14 -13q-7 -4 -10 -2q-9 3 -4 15q-2 3 -4.5 5t-4.5 2t-2 1q-3 1 -5 0l1 4v2h-4v4h-6q-8 -4 -10 -4q-6 -4 -6 -12l-2 -4q-7 0 -7 -9q-3 -10 -8 -10q0 -1 -1 -3.5t-1 -4.5v-10q0 -2 -0.5 -4t-1.5 -5l-2 -6q0 -6 8 -8 l-8 -8q-2 -2 -8 -2q-18 0 -21 -12q0 -1 -1 -3t-2.5 -4.5t-2.5 -5.5q-4 -2 -18 -2l-2 -1q-2 -1 -3 -2t-2 -3.5t-1 -5.5q0 -2 -4 -2l-7 -2l-2 -8l2 -2q1 -1 0 -4q-5 -11 5 -11l6 -6q1 -1 2.5 -6t3.5 -10l-12 -6q-5 0 -9 -6q-2 -7 0 -7h-8q-5 5 -10 2l-6 7q-4 0 -6 4v10v6 q8 0 18 -4v8q0 8 -10 8q-8 -3 -17 11h-6l-2 2l-4 6l-2 2q2 4 2 8t-1 7.5t-1 4.5q5 4 6 12v7l-2 2q3 11 -12 18q-2 5 -10.5 9t-10.5 6q-9 3 -16 10l-3 6t-4 7t-5 5l-2 2h-2l-2 4v9h-19q-4 -3 -4 -9.5t4 -9.5q6 -3 6 -12q8 -16 17 -25q15 -19 18 -22q5 -8 12 -8l9 -9l2 -4 l2 -2q6 -2 6 -10q0 -2 -2 -2h-8q2 0 -2 4l-2 -2l-9 2v4q-4 0 -6.5 -4.5t0.5 -9.5l-2 -6q0 -2 -1 -5.5t-1 -5.5l-8 -8v-2q0 -2 -2 0l-4 4l-4 -2q3 9 4 10q11 22 -10 31q5 4 -5 14q-7 2 -14 13l-4 6q-10 7 -12 12q-4 8 -13 8q-4 8 -6 9v2q3 6 2 10t-3 8l-3 4q0 2 -6 2 q-13 0 -16 -2h-2q-5 0 -7 -4l-10 -6h-4q-6 2 -18 10h-6q-5 0 -7 2q-6 1 -12 -2t-8 -6q-2 -4 -2 -20q-17 -13 -27 -13t-20 -10q0 -1 -1.5 -2t-4 -2.5t-4.5 -3.5q-7 0 -7 -10v-7h5q0 -4 2 -6q-8 2 -11.5 1t-4.5 -3l-1 -2q-9 -6 -14 -6q-11 -4 -17 -12h-30q0 1 -1 2t-3.5 2 t-6.5 0q-3 -8 -16 0h-3l1 2l-2 4q-10 3 -10 4h4q0 3 -3.5 6t-6.5 0q-2 -2 -7 0l-2 2l-8 4h-3zM41 373h4h-4zM76 829h4l-2 -2zM111 553q-3 5 -3 9t3 7q2 2 3.5 4t2.5 3.5t2 1.5q6 0 6 10q0 2 -2 4.5t-2 3.5h-2l4 2q2 4 6 4q7 0 12 8l-2 2q6 0 6 2q2 -1 5.5 -1t6 -0.5 t3.5 -2.5t6 -5l4 -3l-2 -2v-6q-4 -3 -5.5 -7t-1.5 -9t-1 -7q-8 -12 -10 -18l-31 -6q-8 -3 -8 6zM141 508q-2 2 -2 3t4 1q8 0 23 10l2 2l-2 6l-6 2v3q0 2 8 4l2 10l6 12h2q2 -2 10 -2q6 9 2 16v5q0 10 -6 16l4 10v6l-2 2l-4 -2q1 4 2 11t2 10l4 2q7 7 7 8q2 1 3.5 5t2.5 5 q3 6 6 6q4 0 12 -4l-3 -3l-2 -3h-3v-4q13 -8 18 -12q-3 -3 0 -6l-4 2q-1 -1 -2 -2.5t-1.5 -2.5t-2.5 -3t-4 -5l-10 -4q6 -8 12 -14q0 -1 1 -3.5t1 -4.5l4 -23l2 -10q-2 0 -4.5 -4.5t2.5 -5.5v-15q8 0 8 -6q2 -12 -8 -22q0 -6 -2 -10q-4 2 -10 2q-11 3 -16 8h-29l-4 4 q-8 4 -14 2q-2 -2 -9 -2zM156 532l4 -2zM158 481l2 6l4 -4q-1 0 -3 -1t-3 -1zM180 610h2l1 -2q1 -2 1 -5.5t-2 -8.5zM186 276q2 2 2 7q2 -4 9 -4l2 -3l-4 -4l-5 4h-4zM195 272l4 -2zM219 485q4 4 4 9l6 -2v-7h-10zM268 291h2h2h7l4 4v6q0 4 -4 12q3 3 -3 9q0 2 3 2q7 0 10 6 l2 2q2 -4 2 -6q-5 -22 -6 -23q-3 -1 -2.5 -6.5t6.5 -5.5q-2 0 0 -2v-10q-1 -3 -2 -10t-2 -9l-2 -10h-4l-5 -4q-4 0 -6 2q-4 0 -4 6l4 20v7q0 4 -2 6q-10 -8 -18 -9q-8 -2 -8 2q0 9 26 11zM315 207q0 2 1 6t1 6l2 4h21q2 -1 4 -1h3.5t2.5 0.5t2 0.5q8 -4 17 -4q-5 -9 0 -14 q2 -2 2 -5t-1 -5l-1 -2h-9q-10 0 -14 4q-19 5 -27 8q-4 0 -4 2zM315 543q3 1 2 2zM369 219l2 2zM432 293q2 -2 2 -4zM434 289l2 -2q0 2 -2 2zM453 213l2 2zM481 156l8 10q2 0 5 -1t4 -1q2 0 6.5 -1t7.5 -1h20l-12 -4h-20l-13 2l5 -4q12 0 16 -6h-4q-8 0 -12 2q-3 0 -5 2z M518 139v8h8q1 7 9 7q6 0 8 2l2 -2l-4 -7q-4 1 -6.5 0t-6 -3t-6.5 -3v-1q0 -1 -4 -1zM547 821l2 2l2 -2h-4zM588 752v2v-2zM612 764l2 -2zM707 870v2l2 -2h-2zM909 567z" />
<glyph unicode="O" d="M6 530q5 5 8 2q-5 -5 -8 -2zM10 518l2 4q7 7 2 10l9 7h22l2 -2q2 -1 4 -1h3.5t2.5 0.5t2 0.5q2 1 6.5 2t6.5 2q2 -1 20 4v10q-1 1 -1.5 3t-1 5.5t-1.5 5.5q-5 14 -8 19l-4 2q0 2 -4 2q-9 0 -6 10q2 6 2 12q0 3 -3 6t-6 3q-4 0 -6 2q-9 4 0 10q0 2 6 8l9 12q1 1 5 2t5 2 q2 -14 14 -10l8 2q15 -2 31 19q4 6 12 14q15 12 21 29q0 4 6 6q9 3 12 16l17 17l2 14v8q-2 4 2 4q1 1 5 2.5t7 3.5l6 7l2 4q-2 4 -6 6q-2 1 -6 2t-6 2l-1 -1q0 1 1 3q0 8 -8 8l-7 2l-14 6q-2 0 -2 4q0 27 -2 39q9 9 10 11q8 0 8 12q-2 4 -6 6l-2 2l-4 8q-4 0 -12 4 q-3 4 -12 9q-2 0 -2 -3q0 7 2 9q4 6 12 14h6l2 -2q8 0 8 4v2q4 -1 15 4q2 0 4 1t3 1v0h1q3 -2 16 -2q3 -7 21 -20l8 -4q5 -10 6 -11q2 -3 4.5 -4.5t5.5 -2t4 -1.5q3 0 3.5 -0.5t0.5 -2.5v-5q18 0 29 8q8 4 16 4h7l4 2q8 -4 14 -4q11 -4 8 -10l-6 -18q0 -6 -4 -15l-4 8 q-4 -1 -8 -10q0 -2 -4 -2q-9 0 -11 -4q-3 -3 0 -10v-2q-7 -6 2 -15q7 -5 9 -10l2 -6q0 -4 2 -3v-1q-8 0 -11 -6q-2 0 -2 -4l-6 6v6q-7 0 -10 -6t0 -12q8 -11 8 -21q2 -3 4 -7q2 -2 4 -1q5 0 5 -2q3 -9 16 -12q8 -2 12 -7q0 -2 8 -10l11 -4l-4 -4q-12 -9 -15 -23q0 -2 -4 -14 q0 -6 4 -10l12 -4q-1 0 0 -1t0 -1l15 -6h4q1 -1 5.5 -6.5t6.5 -6.5q4 -2 10 -2l7 -2q7 -4 12 -2q1 -1 1 -2t0.5 -2t3 -3t5.5 -3h21q0 2 6 2h6q2 -2 6 -2l2 -2q4 -8 10 -8q3 -7 13 -7q8 0 12 -6h8q7 0 19 -4q6 0 6 4l4 -4h22q3 0 4.5 2t1.5 4v2q0 17 -2 21q-1 0 -0.5 1.5l1 3 t1 4t0.5 5.5v8l9 5q2 -3 2 -5v-18q0 -6 6 -11t14 -5h4q12 -3 23 4h4q2 -2 10 -2q3 0 9.5 1t9.5 1l5 2h-1h4v4l4 4l2 -8l4 6q-1 2 -1 7t-1 7q0 3 -4.5 5.5t-7.5 2.5q5 0 10 5q10 5 14 10l6 4q9 4 11 16h6l14 11q2 6 10 14l17 -6q4 0 7 2l3 2l8 8v2l4 -4q-6 -4 2 -12q4 0 6 2 l2 -4q-4 -3 -6 -11h9v-4h8q8 0 10 -2q1 0 1 -2t-3 -6q-1 -2 -3 -4l-3 -3t-1.5 -4t1.5 -5h-6q-7 -3 -23 -19l-12 -12q-4 -2 -4 -8l2 -6q0 -13 -6 -25q-4 -2 -4 -10l2 -2q1 -1 -2 -8l-9 -27q-1 0 -4 1t-5.5 1t-4.5 -2q-2 0 -6 4q-3 -4 -3.5 -7t0.5 -6l1 -3v-19q-6 -2 -3 -12 q0 -13 1 -19q0 -1 -1 -4t0 -4q-4 6 -7 6l-5 23l-4 12q-6 6 -6 8h4q0 3 -3 7.5t-7 1.5q-6 -3 -6 -9q-4 -8 -4 -14l-4 4l-2 -2l-4 12q-2 2 0.5 7.5t5.5 5.5l6 2q5 2 6 6l2 2q1 0 3.5 7.5t2.5 10.5l2 4l-2 7q-1 0 -3.5 1t-4.5 1h-39q-12 0 -18 2q-1 4 -2 10.5t-2 9.5l-2 5v-1 l-7 2l-4 -2l-2 -2l-8 8q0 1 -0.5 2t-3 0.5t-6.5 -4.5q-5 9 -15 7v-5l-4 -12q-8 -8 0 -12q2 -1 5.5 -4t5.5 -4l4 2l2 -6q-1 0 -6 -5q-6 -3 -13 -10v-12q2 -1 4 -2.5t5.5 -4t5.5 -3.5q6 -3 4 -6q-4 -3 -4 -8.5t4 -8.5l2 -2q0 -8 4 -10q-1 -3 0.5 -11t1.5 -10q1 -2 2.5 -4 t2.5 -3.5t1 -2.5v-4q-10 0 -14 -4q-2 -1 -2 0q0 4 -2 10l-15 -16h-4q-9 -3 -16 -10q-4 -2 -4 -11q0 -8 4 -8l2 2q0 -4 -1 -5t-3 1q-9 -21 -17 -25q-3 -1 -6 -1l-8 -5v2q-6 2 -9.5 0t-5 -4t-1.5 -4l4 -6v-2l-4 4l-1 1q-1 0 -1 -3q-10 -10 -13 -16l-24 -23l-10 -12 q-2 -1 -3.5 -3t-2.5 -3t-2.5 -1.5t-2.5 -0.5q-8 -4 -10 -6q-13 -8 -10 -21l-4 -4q-12 -8 -19 -6q-7 0 -10 -6q-6 -6 -6 -11q-7 2 -12 0q-7 -1 -12 -8t-5 -12q-3 -13 2 -18v-7q-2 -3 -2 -6t1 -6t1 -4l2 -4q-2 -2 -2 -4.5t1 -4.5l1 -1q5 -2 2 -8l-6 -15q-1 -4 -5.5 -13.5 t-5.5 -14t1 -17.5q2 -3 2 -24h-14l-13 -17q0 -1 -1 -3t-1 -3q-3 -7 -2 -10l-12 -4q-15 -3 -12 -15q0 -6 -4 -8q-2 0 -5 -2t-4 -2q-3 -2 -7 -2q-5 0 -11 4l-8 8t-6 8q-8 12 -8 19q0 13 -7 24q-7 25 -18 44l-12 12q-2 2 -2 8q-10 24 -11 31l-4 16l-6 16q0 5 -4 9q-7 10 -10 20 q-3 5 -8 19q-7 11 -7 18q-5 39 -8 47q-4 12 -4 16q2 3 2 7v6h-4v6l-2 14q0 5 4 17q4 8 2 14l-6 14q-2 3 4 9q2 0 2 8l-6 4q0 14 -12 20q-4 -6 -4 -26l-2 -4q-2 -5 -6 -8t-11 -6t-10 -5q-8 -4 -12 -4l-13 8q-2 1 -18 23q-2 3 -5 6t-7 6.5t-6 5.5l-2 -2q-3 3 -3 4h5h14 q25 4 35 29l-29 -8q-10 0 -14 4q-7 0 -13 6zM344 106v5h4zM356 211l4 -2l-2 -4zM379 272l2 4q2 0 2 -2zM571 657l2 5v-3zM590 580l2 2l2 -4zM676 514v4v-4zM692 571zM714 475q-2 2 -2 3.5t2 4.5v-8zM717 520h2h-2zM741 551zM743 551zM801 668l4 -4l2 -7z" />
<glyph unicode="P" d="M6 967h25q31 -13 49 -9l4 5v2h8q4 0 9.5 -7.5t11.5 -9.5h-4q1 -3 12 -14q12 -4 12 4q3 8 10 4l13 -18q1 -1 1.5 -2.5l1 -3t1.5 -3.5q4 -12 14 -12l6 -2v-2q1 -1 0.5 -1t-2.5 1v-6q0 -13 -2 -19q-1 -6 6 -20q0 -11 11 -18q5 -7 16 -11h14q7 3 10 2h5q10 15 10 21q0 4 6 6 q1 1 3 1.5t5.5 1t5.5 1.5h6h5q-1 -1 -2.5 -2t-2.5 -2q-2 -4 -4 -12.5t-4 -10.5q-4 -5 -4 -13t-6 -9q4 -8 20 -8l21 2q7 0 10 -5.5t0 -11.5q-2 -6 -2 -12v-4q0 -17 6 -20l11 -11l2 2q3 -6 12 -6l2 2l-6 -6l4 -4q-5 0 -6 2v2q-10 5 -15 4l-14 15q-10 -2 -10 6q0 6 -4 10 q-1 2 -5.5 5.5t-5.5 4.5v6q-8 -3 -22 4l-2 2q-10 -2 -31 15q-10 13 -24 4q-4 -4 -13 0l-30 12l-13 6l-10 4l-4 2q-1 1 -5 3.5t-7 3.5v-4q-11 11 -11 12l7 4v6q3 11 -7 18l-8 13l-2 2l-2 4l-16 10q3 5 -1 8.5t-7 3.5q0 6 -5 11l-8 6h-8v8q-4 0 -6 -2t-2 -14q5 -9 8 -11l6 -14 q4 -8 4 -12l-8 6q3 17 -10 22l-12 5l4 4v6l-4 10l-4 2q-6 0 -9 10q-7 15 -8 15zM18 926q7 0 7 -6l-2 4h-3zM45 883q0 10 4 10q0 -2 -4 -10zM59 887q1 -1 5.5 -3t5.5 -3v-4l-9 6zM72 905h2l2 -2zM238 655v4l4 -4l4 -2v-4l-2 2zM274 854q7 0 7 -2zM301 856l8 8q2 4 17 4 q3 1 16 -2l8 -4q10 -3 10 -6q3 -2 8.5 -3.5t6.5 -2.5q6 -2 10 -6l-16 -2v2q-4 6 -11 6q0 8 -8 8q-1 0 -2 0.5t-3.5 1.5t-4.5 2h-18l2 -2l-9 -2l-4 4q-9 -6 -10 -6zM334 616l6 5q3 11 -4 16v6q2 7 8 10v6q0 3 8 3q2 2 4 6.5t4 7.5q13 7 11 14q0 2 -1 4.5t-1 3.5q-4 8 0 15v4 q-9 13 -9 16q0 8 -8 8q7 0 15 -8q2 2 6 2q8 3 12 15l4 6q4 -2 10 0q1 1 6.5 2.5t8.5 3.5q0 -10 12 -6l6 8q1 -3 2.5 -4.5t2.5 -1.5h1q0 -10 1 -9.5t1 9.5l6 -2q0 -3 2 -4.5t4 -1.5h1h16q5 -5 9.5 -3.5t6.5 5.5h7l-3 -2q5 -3 8.5 -5t4.5 -2.5t2 -1.5q4 0 6 -2q0 -8 2 -12 q2 3 4 4t3 1t3.5 -1.5t3.5 -1.5l6 -8l-2 -2q3 -1 13 -6q4 -6 14 -6q21 0 35 -9q8 -3 8 -12q1 -1 2.5 -6t3.5 -6q3 -4 0 -12q2 -5 8 -5h7q0 -4 6 -4q1 0 4.5 -2t5.5 -2l6 -6q2 -1 7 -2t7 -2l-1 -1q0 -1 3 -1q0 -1 2.5 -3t2.5 -3h8q8 -4 18 -4q12 2 31 -13q5 -8 16 -8 q9 0 6 -8q0 -2 1 -6.5t1 -7.5v-2q-3 -11 -6 -13q-10 -6 -16 -16q-8 -5 -8 -12h-6q-6 -10 -2 -27q0 -3 -2 -9l-3 -9v-7l-6 -16q0 -1 -4 -7.5t-4 -12.5q-2 -2 -6 -2q0 -1 -14 -5q-4 -2 -11 -2l-4 -4q-4 0 -6 -2q-2 1 -6 0l-4 -2q-2 -4 -10 -12q-10 -7 -6 -23q1 -2 -5 -14 q-2 -2 0 -9q0 -2 -2 1l-2 4l-4 -14q-2 -1 -4 -4l-2 -3q-1 -3 -14 -16l-10 -18q-1 -1 -11 -6q-3 0 -8 1t-8 1q-3 6 -10 2q0 -11 2 -11q-3 -9 6 -12q-4 -21 -21 -24q-5 0 -13.5 -1.5t-12.5 -1.5q-4 -4 -4 -20v-1q0 -4 -1 -4t-7 1h-1q-2 0 -4 2h-6l-6 -2v-10q0 -11 12 -11 q-8 -8 -8 -10q-6 -4 -6 -12v-2l-2 -4q-12 0 -12 -10q-8 -4 -4 -13q0 -10 14 -10v-2q2 -4 -2 -8l-10 -10q-4 -2 -4 -9q0 -6 -5 -6q-5 -2 -8 -9t-2 -13l6 -11h2l-4 -6l6 -10h-4q1 -1 7.5 -8.5t11.5 -11.5l4 -3q-14 -5 -16 -6v-2l-7 2q-15 10 -16 11q-9 9 -14 10q-3 4 -11 8 l-2 2l2 8q0 6 -4 8v7q3 9 0 12q-6 9 -6 16q0 9 -2 13q0 4 2 6v2h2q2 2 2 8q-1 3 -1 6q0 4 -5 4l4 6v-3q2 4 6 9h4l5 7q4 3 4 7t-4 5l-2 4q4 2 4 10q0 2 0.5 5t1 5.5t-0.5 6.5t-3 8q-4 -4 -7 -4q0 14 2 20v12l-2 15q5 3 11 14q8 11 8 25h2v28q-4 8 0 15v4q-1 4 -1 5.5t2 5.5 t3 7q0 6 2.5 15.5t3.5 13.5q0 6 -2 8q-1 1 2 10v25q2 9 -2 18q-2 10 -18 21l-21 12q-4 2 -12 10q0 9 -12 25l-2 8l-7 19q-8 12 -14 16q-6 6 -8 6q0 10 -2 14zM334 637h2v-4zM338 737l6 4q0 4 8 0l-8 -2q-1 0 -3 -1t-3 -1zM344 854l12 -6l2 2v-2l-6 -4l-6 4q0 3 -1 3 q-1 4 -1 3zM358 877v6q-2 2 -2 5t2 7q0 -4 4 0v-6h-4v-2l4 -4l3 -4zM360 907l5 2v-4zM362 897q0 8 3 8l6 -8l4 -4v-4h6l-4 -4l-2 2l-2 -2l-4 -4q0 2 -2 2q4 4 4 6q2 2 -2 3q-5 2 -7 5zM367 842h2h-2zM383 868v9q6 -3 10 -11l4 -6q-4 0 -8 4zM385 844q2 2 4 2l2 -4zM386 189 l1 -11h2v-2v-10l2 -2v-4h-2l-2 -19q-3 23 -3 35q0 10 2 13zM393 188l4 5h4l-2 -3zM393 825q6 -2 10.5 2t4.5 11h18l14 -4l2 -5q-8 0 -10 -2h-10l-2 -2q-6 3 -12 0h-15zM397 231q0 2 2 2zM397 231zM397 240v4h4zM397 240l4 -2v-2l-2 -3q0 1 -1 3t-1 4zM397 295l4 -6q0 2 -4 6 zM403 840v2l5 -4q-3 0 -5 2zM406 860v2q3 -1 4 1v-5zM414 762l2 2l2 4l4 -4l-4 2zM432 764l2 2zM438 758v16l2 -2q0 -10 -2 -14zM440 772v14q5 -10 9 -14l6 6v-8q-9 -4 -15 2zM442 823l2 4l-2 2l4 -4zM461 825l2 2h12l10 4v-8q-1 1 -3.5 0.5t-2.5 -2.5h-2v-2q0 -2 -6 4z M465 63h8h-8zM485 231l2 2v-1zM492 752l10 6v-6h-10zM492 825h6l-2 -6zM506 796q0 3 4 7l2 -4l2 4q4 -4 4 -10v-11l-4 9q-2 -1 -4 0q-4 2 -4 5zM510 104v9l4 -4h-2l2 -5h-4zM510 807l6 -2l-2 -2zM514 100l2 2l2 -2h-4zM514 104h4l2 5q1 0 5.5 1.5t6.5 0.5h5l-9 -9q0 3 -2 4 q-3 0 -4 -6l-2 6l-2 -2l-2 -2zM514 754q-2 0 -2 1t4 5l4 -4z" />
<glyph unicode="Q" d="M4 662l4 14q6 0 12 2q4 -4 11 2q4 -2 10 -2q2 0 4.5 1t3.5 1q9 9 4 16l4 -2q4 0 11 -1t10 -1q14 0 26 6l19 13q2 2 14 2q1 1 3.5 0.5t4.5 1.5q3 0 11 -4q3 -7 12 -4q0 -4 2 -6t7 -3l5 -2l3 -2q3 -2 8 -2q6 0 10 -2q2 -3 7 -2.5t7 2.5t16 2q11 -2 23 6q2 0 4.5 2t3.5 2 q3 -7 17 0h4q8 -12 22 -6q2 2 17 2q4 2 10 2q2 -2 7.5 -4t8.5 -4q-4 10 -6 10q-4 7 -2 9q3 1 10 -6l2 -3q2 -4 11 -4q13 -4 16 7l2 2l-1 3l3 -3q4 -8 8 -9v-6q1 -2 4 -5t4 -5q-1 -1 -2 -4.5t-2 -5.5q0 -8 -2 -10q-9 -5 -14 -5q4 -8 4 -22q0 -4 2 -6q0 -6 4.5 -11.5t9.5 -5.5 q4 0 13 -6l12 -6q10 -5 20 0q13 0 19 2q10 0 12 6q-2 2 -2 19v20q0 10 -8 12v7q1 0 1.5 1t-0.5 3.5t-3 5.5h-8l-2 16l2 -2q4 -8 12 -4q1 0 5 -1t7 -1l4 6l2 6q0 5 -4 9q-8 4 -10 8q0 3 -2 4.5t-4 1.5h-2q-5 0 -8.5 -3.5t-3.5 -8.5q-3 5 2 10q2 6 10 6q2 -1 5.5 -1.5t5.5 -1 t3 -1.5q8 -3 8 -8q2 -13 17 -13h3.5t0.5 2v2l2 17v59h-4v2h4v4q16 3 33 11h3q7 0 21 -4q30 -30 35 -37q4 -6 12 -6q13 0 21 4q3 0 10.5 1t11.5 1v2l2 -4q11 -8 13 -11q0 -6 6 -6q0 -2 -1 -9.5t-1 -14.5h10q2 0 2 -2v-7l4 -4h13q3 0 7 -1t7 -1q1 -3 5 -3t5 3q7 7 16 13 q7 0 7 6l4 2q8 0 8 8q3 6 4.5 6.5t7.5 -0.5q8 0 23 -6q8 0 8 6v4l4 4q5 3 8 0q6 -4 23 -4q5 0 13.5 0.5t15 0.5t10.5 -1q3 -1 9.5 -2t8.5 -2q-2 0 -1 -1t5 -1q3 -6 12 -6q0 -6 -2 -6q-3 -2 -8.5 -4t-7.5 -4q-1 -1 -2.5 -2t-3.5 -2.5t-4 -4.5q-4 -4 -10 -4q-2 0 -7 -1t-8 -1 l-6 -8q-3 -7 -12 -4h-19l-2 -4h-6q-7 -4 -10 -12q0 -3 -1 -9.5t-1 -9.5h4q0 -5 0.5 -5.5t5.5 -0.5v-4h6l2 -4q4 -12 4 -23q0 -2 2 -2v-4q7 0 7 -4q10 -2 10 -8h4q0 -6 6 -6l-2 -4q5 -7 16 -7l-4 -6l-4 -4q-2 0 -5.5 -1t-4.5 -1q-4 0 -9 -2t-7 -2q-4 6 -17 6q-6 0 -9 -4.5 t-1 -9.5q1 -1 1.5 -2t1.5 -2t3 -2q-6 -3 -2 -10q-1 -1 -1 -4t1 -5l8 -6q4 -8 10 -10l-4 -4l-4 -4v-8v-5l-14 -16l-2 -2v-2q-3 -1 -10 -16l-23 -21q0 -4 -4 -4q-6 0 -8 -4l-8 8q-3 -4 -8.5 -7.5t-8.5 -8.5q-3 -6 -1 -11.5t7 -7.5h5q-3 -12 6 -16q0 -6 6 -12l2 -7h-4 q-6 4 -6 0h-25q-1 -2 -1 -3q0 -3 -5 -3q-4 0 -8 -4q-6 0 -11 8q0 5 -6 11l-4 4q-6 11 -12 8q-8 -2 -21 -2h-10q-11 3 -14 0q-4 -2 -10 -2q-10 3 -15 -2h-6q-8 2 -14 2q-2 2 -8 2q-11 0 -15 2q-20 4 -28 4q-4 0 -9 8q0 9 -2 11q-7 12 -20 6q-8 0 -21 -9l-3 1q-4 2 -9 2l-6 2 v4q-6 0 -8 2q-2 0 -10 6q-2 4 -11 4q-3 1 -12 14q0 7 -8 15q-10 15 -17 22l-4 -8q-9 7 -9.5 7.5t-6.5 0.5q-3 -9 -10 -6v-10l2 -2q-2 0 -2 -11q2 -2 2 -10q3 -9 14 -20l4 -2l8 -8q5 -10 5 -17v-4q6 -6 6 -14q6 -7 12 -9l-2 -2q5 -1 12 -8h12l9 2q10 0 16 -2q6 0 10 8 q2 1 3.5 3t2.5 3t2.5 1.5t2.5 -0.5l18 24v-8q0 -22 20 -35q7 0 15 -4q8 -3 8 -4q3 -6 8.5 -11t7.5 -7l-4 -3l-6 -12l-12 -12q-5 0 -8.5 -3.5t-3.5 -8.5v-15l4 2q-1 -2 -9 -3.5t-12 -4.5q-2 -4 -2 -12l-6 -2q-6 0 -10 -2q-8 0 -8 -10q0 -5 -9 -3q-19 0 -37 -14q-4 -2 -4 -10 l-2 -2q-4 0 -7 -1l-3 -1l-16 -8q-10 0 -21 -7q-3 0 -5.5 -3t-2.5 -5l-6 -4q-13 4 -17 -4q-6 -4 -20 -4q-8 0 -14 -6q-7 -5 -14 -5q-4 0 -7 1h-12q0 1 -1 3t-1 3q0 4 -2 10t-2 10l-2 4l-2 15l2 2q0 6 -2 10v6l-11 17l-6 8q-7 2 -10 16q-7 20 -22 29q-11 5 -13 12v19q0 4 -4 8 q-5 18 -14 24q-3 6 -8 6q-4 0 -4 7q-4 8 -5 12l-2 2q-1 3 -5 8t-5 6q-1 3 -4.5 7t-3.5 6q-2 6 -10 18q-3 6 -13 6l5 2q3 7 -3 29q-1 1 -3.5 9t-4.5 11l-2 -2q3 4 7.5 17.5t7.5 17.5q10 25 16 31q4 12 0 29q0 8 2 12l-4 6q-6 4 -6 6q-2 1 -3 1h-1v-1l-2 4q-13 3 -17 -6 q-2 -4 -6 -4q-2 -1 -5.5 -2.5t-5.5 -2.5t-3 -1h-4q-3 6 -9 6q-9 12 -30 12v-8q0 -4 -4 -6q-15 -4 -15 4q-12 12 -20 4l-4 2l4 8l-8 -2v6q-5 6 -4 7q3 3 -3 8q-4 3 -8 4q-3 1 -4 2l2 2h4v20l-4 5zM23 610h4h-4zM111 563q4 2 8 6l6 2h10l-2 -4q0 -2 -4 -2l-10 -4l-6 2h-2z M135 481l2 2zM424 362l6 11v-11h-6zM430 373v10v2l2 -4v-4zM453 702v5v-5zM813 535q2 2 6 2zM823 494l4 2v-2h-4zM831 510h3l2 -2q-3 0 -5 2zM834 510l2 4q0 -1 -1 -2t-1 -2zM870 575l2 3v-3h-2z" />
<glyph unicode="R" d="M8 487q2 1 7 4.5t8 2.5q2 0 12 10l-2 6h-10q8 0 16 4h2l2 2l8 6q4 12 4 17l2 4h13q2 0 6 2.5t4 3.5q2 6 14 6l8 2q9 2 13 6q4 -2 8 -2h12q6 0 6 -6l-8 -12q16 2 18 -2q1 -3 -4 -5q-6 -3 -6 1q0 2 2 6q0 -9 9 -13q3 -5 12 -10q0 -2 -4 -2q-16 0 -13 -16h11q2 3 7.5 3.5 t8.5 2.5q-2 -4 -1.5 -6t2 -3t2.5 -1.5t1 -1.5q1 -2 2 -2q-6 -16 -10 -21q0 -1 -7.5 -1t-12.5 -7q4 -10 -11 -14l-10 6h-6q-4 -2 -17 -2v10q-6 1 -8 2t-3.5 3.5t-2.5 8.5q-2 2 -10 6q0 12 -8 4q-1 -3 -2.5 -5.5t-3 -4l-3 -3t-2.5 -3.5l1 -5q-3 0 -5 -1q-2 0 -2 -4l-8 -2h-6 l-14 4v4q-4 0 -4 4q-2 5 -13 10zM53 766q2 2 2 10l4 17l-4 4h-2l2 2v6l6 -2l5 2q-5 -5 2 -14v4q-7 -2 -7 -13h-8q1 -2 2.5 -5.5t2.5 -5.5t1 -3v-12h-2q-4 8 -4 10zM74 848l2 4h6l-2 9v-1q6 -2 6 2v-4h6q2 2 1 4h1l37 21q-3 0 0 -6q0 -5 -4 -9q-4 0 -5 -2t-0.5 -4.5t1.5 -3.5 l4 -6l10 6l-2 6l-4 -4q-6 0 -6 2q-3 -3 -8 -18h-6q1 -9 0.5 -9.5t-5.5 -0.5l-8 -5l-4 2l-6 -4v-2l4 4v-6l-10 -4l-2 2q2 2 2 6l-2 -2q0 -2 8 -2v8l-4 5l-4 2q1 3 -6 10zM86 688l2 4l4 -2zM96 782q1 1 4 -2q0 -2 11 -2q0 8 -2 10q3 4 1.5 6.5t-4.5 2.5q0 -2 1 -3t1 1l1 4 l-7 -2l11 -13q14 2 10 17l2 2l4 -6q2 -1 3 1l1 -3v-25h6l4 2l4 -8q0 -4 7 -4h4l16 10l-2 8l-4 4l-6 -4l-2 2v8v5q5 -8 10 2q-2 4 -6 8l2 2q1 3 0.5 6.5t-2.5 3.5q-2 2 0 6h2q6 0 8 4q1 -3 3.5 -4.5t4.5 -1t4.5 1t3.5 0.5l13 6v9q-3 1 -5.5 2.5t-4.5 2.5t-3 1h11l-6 16 q12 0 18 2l-2 4v21l2 2q2 2 2 6q0 2 4 2q2 -6 12 -8l2 -2q12 0 0 12q-3 -4 -1.5 -5.5t1.5 -8.5l7 2q0 -1 -1.5 -2t1.5 -2q2 6 3.5 7.5t4.5 0.5q-2 -1 -2 -4.5t2 -3.5h6v8l6 -4q1 1 4.5 2t5.5 2h21q2 0 5.5 1.5t5.5 2.5t3 0h6h13l2 6l-2 2l-2 -2q8 -6 14 0l12 -9q-7 -6 -11 5 l-1 6l6 -4l-6 -10l4 -6q-6 -9 -14 -11q-6 -3 -13 -10q-1 -3 -12 -8l-10 -10l2 -2q-2 -2 -10 -4q-7 -4 -7 -9h-6v-6l4 4q0 -8 2 -10q8 5 13 4l-13 -14q-3 -2 -8.5 -9t-7.5 -8l8 -8l15 15q6 -4 12 2l18 2q1 6 8 7.5t11 -1.5q12 -8 24 -2q4 4 13 0q4 -2 8.5 -2t9 1t6.5 1 q4 -1 12 1t11 1l12 -19l-2 -4q-11 -8 -14 -18q-8 -4 -2 -14q-4 0 -4 -7q-7 -3 -7 -10q-1 -6 -14 -12q-2 -4 -3.5 -11t-2.5 -8l-12 -12q-2 2 -11 2v-16q4 -6 11 -6l2 -4q-6 -6 -13 -2q-8 0 -10 -2q-2 -1 -6.5 -6.5t-5.5 -6.5h-10l-2 -4l-3 -2q1 -5 7 -8h8l4 -2q12 -4 22 6 q2 3 6 3t7 -3q7 -5 20 -8q2 -6 10 0l5 -6q7 -14 12 -15l2 -4l2 -3q1 -3 6 -3q3 0 6 -6q4 -7 2 -14l4 -9q0 -21 13 -34v-9q4 -12 12 -16v-6l12 -6l15 -6q20 -6 26 -23l2 -5v1l6 -4q0 -2 4 -6h5q0 -1 -2.5 -8t-2.5 -11q3 -8 23 -28l-4 2h-8l-6 6l-2 -2q-3 0 -3 -2l-4 -2l7 -9 q3 -1 8 -6t8 -6q5 -2 8.5 -6.5t7 -13t4.5 -11.5q1 -1 -1 -2q-4 -2 -5 -4q-11 -8 -18 -20l16 -8q5 -4 12.5 -2t10.5 8q0 4 4 8h8q31 0 45 -8q4 0 6 -2q2 -3 6 -6.5t6 -7t3 -7.5q0 -8 2 -14q-2 -4 -5.5 -13.5t-5.5 -13.5v-8l-8 -4q-4 -9 -7.5 -10.5t-10.5 0.5q0 -9 2 -13 l-8 -6q-7 7 -9 4h-6q0 -4 1 -10.5t1 -9.5l-6 -6h-6q-1 0 -3 -1t-3 -1q0 -13 2 -13q2 -1 6.5 -2t5.5 -2q4 -6 8.5 -7t9 1t5.5 2h16l2 -4l-4 6q-4 -8 -2 -12q0 -7 -8 -10l-12 -4q-4 0 -7.5 -4t-1.5 -7v-6h4q-13 5 -26 -4h-8q-8 -3 -15 -10h-4q-31 8 -33 8l-6 -2q-3 0 -9.5 -1 t-10.5 -1l-4 -4l-23 6l3 5q2 -5 0 -5q-2 -1 -5 2l-6 -2q-2 2 -8 2l-10 -10l2 -6q4 -4 8 0q1 0 3 1t3 1q0 -4 4 -4l-2 -4h-6q-2 0 -6 2l-2 2q4 8 -9 12q-2 -2 -2 -4h-20q-8 0 -8 -10q0 -4 -4 -2q-10 5 -19 0l13 10q6 -4 -2 -7q-4 -1 -11 -1h-2q-2 1 -3.5 1.5t-3 -0.5t-1.5 -3 l-4 2q-2 3 -7.5 6t-6.5 4q-6 2 -9.5 1.5t-8 -2t-5.5 -1.5q-6 -1 -14 -4t-11 -4q-3 -2 -5 -8t-1 -9l-6 -6q3 -6 2 -6q-6 -3 -6 -10q-3 -2 -10 2q-2 4 -8 4l-2 2h-5q-2 4 -6 4v-2q-6 4 -14 4q-2 0 -5 -1t-5 -1q0 -2 -6 -2q-13 0 -17 -8q-5 -1 -9.5 -6t-8.5 -4v-9q0 -6 -0.5 -7 t-5.5 -1q2 0 0 2q0 8 -4 8l-15 7l-6 -7q-2 -4 -4 -4v4l8 5h10q1 1 7 5.5t8 8.5q1 2 6 8t6 12q0 2 8 6q1 0 8 7l5 4q5 0 8 6q4 4 4 10q-4 4 2 12q9 -5 16 2h10q-1 4 -2.5 6.5l-3 5t-2.5 3.5q2 4 11 4q3 0 8.5 1t7.5 1h14l6 -2q11 -6 25 0h12q-1 2 -2.5 5.5t-1.5 4t-0.5 2.5 t0 2.5t1.5 2t3 2.5t4 3t5.5 5t7.5 6l14 12h-14q-7 0 -9 -4q-2 -1 -8 -2t-8 -2q-10 0 -10 -10l-10 -3q-2 -1 -15 5q-4 0 -6 2l-2 6q-10 13 -22 4q0 1 -2.5 2t-5 1t-3.5 -3q-2 -2 -6 0h2q2 4 2 8q-8 8 -12 10h-12q-3 0 -8 -2.5t-5 -5.5q0 -2 -12 0q-1 -3 -1 -5.5t-2 -1.5l-1 1 l-8 10l4 4q0 4 2 6l-4 9l4 6q11 -3 25 8q0 2 10 2h2q3 1 4 4q8 4 10 6q13 2 17 19q4 13 8 14v4l-8 2q-3 6 10 14l-10 7h-5q2 3 1.5 8t-3.5 6h-12q-2 0 -6 -1t-6 -1l-4 -4v-4h-8l6 6q5 0 10 3l6 3q2 4 2.5 8.5t1.5 5.5l-4 2q-5 10 -14 13q-3 6 -6 6v-6h8v10q2 2 0 2h18l-2 2 l-2 -2q0 -6 4 -10h8l-2 -4q2 -4 10 -2.5t13 6.5q11 -5 29 2q3 3 6 -2q1 -3 7.5 -4.5t6.5 -3.5q4 5 4 9t-1.5 5.5t-2.5 1.5q8 8 6 16l-2 4q4 2 6.5 9t5.5 8q-10 2 -10 11v3l14 6q-6 9 -2 13q5 3 5 12l-7 4l-6 -4q-4 4 -10 -2l-8 -6q0 4 4 8q-10 0 -19 22q-5 7 -16 11 q0 -7 3 -6h3q1 -1 0 -3q2 12 4 15l6 10q5 10 5 12q2 4 4 4v4q1 0 6 7q-1 0 -3 2t-3 2q-2 3 -13.5 0.5t-13.5 -2.5l4 -6h-8q1 -1 -2 -2.5t-6 -4.5q-2 -4 -10 -4q-5 0 -13 4q-2 4 -18 4q-2 -12 4 -12v-6l4 -2l-2 4l-23 10q0 6 -6 9l-12 -9q-2 -4 -1 -6.5t2.5 -4t0.5 -1.5l4 -8 l4 6q-5 0 -5 -1q0 -2 3 3q-5 11 -12 14q-8 4 -4 11l2 -7q5 4 10 21l1 -1q1 0 1 3q6 6 8 12q3 10 15 19v8q-1 6 -4.5 10t-9.5 7t-7 3l-2 2l2 -2l6 19l-4 2v8q-8 0 -8 -4l-2 -8q-4 0 -5 -2.5t0 -4.5l1 -3l2 4v-2l-2 -2l-4 8q-5 -2 -8 0t-4.5 8t-2.5 8q-5 2 -9 -2t-1 -10l6 -12 q-11 -6 -8 -23q-4 -4 -4 -8l-1 -3q-1 -3 -1 -7q2 -2 -2 -5h-6l2 5q4 12 4 18l8 16l6 2q-6 1 -8 2.5t-1 3.5t1.5 5.5t-0.5 9.5q-4 0 -4 -2l2 2q6 9 6 25l-4 4v4h-4q4 -1 8 3q3 2 4 3l-6 6q6 3 4 8l11 8q4 0 4 4q5 0 2 13q-7 2 -11 -4l-12 -13q-7 -7 -16 4v-12l4 4 q0 -14 1 -20q-1 3 -1 6q-6 -4 -8 -4q-3 3 -5 3t-4 -1l-2 -2l-18 -6q2 0 -4 4h-4q0 2 16 0l8 14l-14 6q4 8 14 0q9 10 17 11q-6 7 -16 8t-11 2l2 -6q2 2 4.5 2.5t7 0.5t7.5 1l4 4q0 2 2 4q3 0 5.5 5.5t-1.5 8.5q-6 -4 -12 -4l4 -6q11 19 16 33q-2 0 -3 0.5t-4.5 2t-8.5 3.5 q0 -10 -4 -14l2 4l-4 6q-7 0 -9 -2l-8 6q-2 -6 -3 -8h-1q0 -1 -1 -1h-1t-1 5q1 7 5 -2q-1 2 -5 3.5t-5 2.5q-2 1 -2 20l-15 -6l-6 2zM117 610l2 13l4 2v-4l10 6v-9q23 23 31 33l-8 -14q-2 -2 -5.5 -6t-5.5 -6h-6l-2 -7l2 -4q2 -5 -2 -6q-6 0 -10 -4l2 -2q9 6 0 10l10 6 q-15 10 -20 0l-2 -2v-6zM190 602l7 6q4 -2 4 -10l2 -2q2 -2 2 -8q0 2 -4 2q-11 4 -11 12zM325 923q0 2 1 3l4 2q0 4 -1 9.5t-1 8.5q3 1 5.5 1t4.5 -1q1 -2 3.5 -4t2.5 -4l4 -6l12 -2q0 -2 -4 -2l-4 -8v-5l2 3q3 2 3 6.5t-5 9.5h-8q-7 -2 -16 4q-4 -10 2 -16q3 -6 6 -9v5h-4 l-6 4z" />
<glyph unicode="S" d="M4 518q7 76 41 127q33 54 84.5 84.5t103.5 30.5q36 0 92 -19.5t85 -19.5q27 0 79.5 19.5t96.5 19.5t89.5 -23.5t80.5 -64.5q-55 -32 -81 -86q-22 -46 -22 -92q0 -10 1 -18q5 -54 39 -103.5t89 -71.5q-29 -66 -57 -106q-25 -38 -44.5 -62.5t-51 -47t-62.5 -22.5h-3 q-26 0 -66 19q-43 20 -88 20q-43 0 -87 -20q-42 -19 -68 -19h-3q-77 0 -154 123q-53 81 -77 169q-19 68 -19 129q0 17 2 34zM385 762q-2 12 -2 24q0 59 47 115q25 30 61.5 50.5t71.5 23.5q1 -11 1 -22q0 -64 -46 -122q-24 -30 -60 -49.5t-73 -19.5z" />
<glyph unicode="T" d="M0 215v25q4 16 4 22q14 57 68 98q53 38 123 54q52 13 124 16q5 0 9 2q-7 7 -15 19q-23 33 -23 64q0 6 1 11q1 6 4 15l4 12l4 8q-10 -2 -29 -2h-12q-49 0 -94 21q-85 45 -102 133q-4 21 -4 40q0 67 47 126q51 61 139 84q40 12 100 12h256q-12 -8 -18 -10q-28 -17 -54 -29 q-2 -2 -8 -2q-20 -2 -61 -2h-8q4 -2 8 -6q53 -47 69 -97q9 -32 9 -61q0 -45 -21 -84q-15 -28 -47 -57q-36 -31 -43 -39q-16 -13 -22 -31q-10 -33 12 -55q5 -5 12 -11t15.5 -13t13.5 -11q46 -36 67 -57q48 -45 54 -105q1 -10 1 -19q0 -54 -30 -102q-43 -64 -117 -94 q-60 -30 -149 -33q-17 -1 -33 -1q-63 0 -119 18q-62 20 -96 57q-31 36 -37 80q0 2 -2 4zM108 254q0 -40 21 -70q25 -38 74 -57q52 -21 110 -21q45 0 74 7q58 14 86 47q21 22 27 58q2 10 2 20q0 24 -10 45q-11 28 -50 59q-12 9 -35 26.5t-34 26.5l-8 2q-8 1 -18 1 q-21 0 -52 -3q-62 -7 -102 -24q-39 -17 -58 -41q-27 -32 -27 -76zM168 803q3 -53 25 -109q21 -47 51 -73q36 -29 75 -28q14 0 29 3q64 16 80 72q7 22 7 46q0 8 -1 15q-6 62 -28 109q-22 48 -58 75q-31 23 -65 23q-13 0 -29 -4q-52 -13 -74 -60q-12 -28 -12 -69z" />
<glyph unicode="U" d="M0 53v422h424v-422h-424zM0 553v422h424v-422h-424zM498 53v422h424v-422h-424zM498 553v422h424v-422h-424z" />
<glyph unicode="V" d="M0 104v818q0 22 14.5 36.5t36.5 14.5h817q22 0 38 -15t16 -36v-818q0 -22 -16 -37.5t-38 -15.5h-817q-22 0 -36.5 15.5t-14.5 37.5zM436 457h90v-340h129v340h127l4 121h-131v90q0 28 10.5 40.5t41.5 12.5h79v115q-37 4 -86 4q-86 0 -130 -45.5t-44 -112.5v-104h-90v-121 z" />
<glyph unicode="W" d="M0 231q14 -2 45 -2q129 0 234 78q-61 1 -110.5 37t-66.5 92q24 -4 35 -4q3 0 51 6q-65 14 -108 66t-43 119q41 -23 86 -23q-40 25 -62 66t-22 88q0 50 22 92q72 -85 174.5 -137t217.5 -56q-4 14 -4 43q0 75 55 130t133 55q77 0 137 -60q56 10 121 45q-21 -65 -84 -102 q65 10 111 31q-43 -63 -97 -97v-22q0 -75 -22 -149.5t-67 -143t-107.5 -121t-150.5 -84t-189 -31.5q-151 0 -289 84z" />
<glyph unicode="X" d="M0 205q0 29 21.5 50t52.5 21h766q29 0 50 -21t21 -50q0 -31 -21 -52.5t-50 -21.5h-766q-31 0 -52.5 21.5t-21.5 52.5zM0 825q0 29 21.5 50.5t52.5 21.5h766q29 0 50 -21.5t21 -50.5q0 -31 -21 -52t-50 -21h-766q-31 0 -52.5 21t-21.5 52zM4 516q0 31 21.5 52.5t52.5 21.5 h770q31 0 52.5 -21.5t21.5 -52.5t-21.5 -52.5t-52.5 -21.5h-770q-31 0 -52.5 21.5t-21.5 52.5z" />
<glyph unicode="Y" d="M4 412q0 114 79.5 193t192.5 79q43 0 95 -18l2 4v-2l55 -25q43 -19 90 -78q14 -38 49 -62t78 -24q57 0 97 40t40 97q0 56 -40 97t-97 41q-82 0 -129 -80q9 -12 7 -12.5t-22 15.5q-32 24 -48 34q-14 10 -32 20l-18 10q35 66 99.5 107t142.5 41q114 0 193.5 -80t79.5 -193 q0 -114 -79.5 -193t-193.5 -79q-51 0 -94 18l-2 -4v2q-50 22 -55 25q-45 21 -91 78q-14 38 -49 62t-78 24q-57 0 -97 -40t-40 -97t40 -97.5t97 -40.5q76 0 123 70q-5 9 -4.5 10.5t9.5 -6.5q24 -21 45 -33q12 -5 26.5 -10.5t27 -10t15.5 -5.5q-34 -68 -99 -109t-143 -41 q-113 0 -192.5 79.5t-79.5 193.5z" />
<glyph unicode="Z" d="M4 184v428q0 29 20.5 49.5t49.5 20.5h555q31 0 52 -20.5t21 -49.5v-428q0 -29 -21 -49t-52 -20h-555q-29 0 -49.5 20t-20.5 49zM145 256h412v285h-412v-285zM154 733v92q0 30 20.5 51t50.5 21h619v-1q2 0 2 3q31 -1 51.5 -22t20.5 -50v-491q0 -30 -21 -51t-51 -21h-92 v142h20v348h-479v-21h-141z" />
<glyph unicode="a" d="M8 195v626q0 28 19 47t45 19h772q29 0 49 -19t20 -47v-626q0 -27 -20 -46.5t-49 -19.5h-772q-26 0 -45 20t-19 46zM137 260h639v496h-639v-496zM352 373v252l217 -127z" />
<glyph unicode="b" d="M8 145v543q0 31 20 52.5t50 21.5h72v133q0 31 20.5 49.5t54.5 18.5h611q32 0 49.5 -18.5t17.5 -49.5v-750q0 -35 -17 -61.5t-46 -26.5h-756q-30 0 -53 27.5t-23 60.5zM72 176q0 -22 20 -39q19 -16 44 -16h3h127h6h512q22 0 38 15.5t16 37.5v672q0 22 -16 37.5t-38 15.5 h-512q-22 0 -37.5 -15.5t-15.5 -37.5v-615h-63v467h-19v-4h-6v4h-31v-10q-28 -14 -28 -45v-467zM289 217v51h211v-51h-211zM289 338v51h211v-51h-211zM289 471v51h211v-51h-211zM289 618v211h211v-211h-211zM340 670h111v108h-111v-108zM557 217v51h197v-51h-197zM557 338 v51h197v-51h-197zM557 471v51h197v-51h-197zM569 672v51h185v-51h-185zM569 778v51h185v-51h-185z" />
<glyph unicode="c" d="M8 510q0 187 132.5 319t320.5 132t320 -132t132 -319q0 -124 -60.5 -229t-164.5 -165.5t-227 -60.5q-92 0 -176 36t-144.5 97t-96.5 145t-36 177zM139 510q0 -134 94.5 -229t227.5 -95t227 95t94 229q0 132 -94 226.5t-227 94.5t-227.5 -94.5t-94.5 -226.5zM238 467 q0 23 16 39t39 16t39 -16t16 -39t-16 -39t-39 -16t-39 16t-16 39zM385 666q0 28 19 46.5t47 18.5t46.5 -18.5t18.5 -46.5t-18.5 -47t-46.5 -19t-47 19t-19 47zM406 309q0 11 7 18t17 7q9 0 16 -7.5t7 -17.5q0 -9 -7 -15.5t-16 -6.5q-10 0 -17 6.5t-7 15.5zM469 467 q0 40 28 68t68 28t68.5 -28t28.5 -68t-28.5 -68t-68.5 -28t-68 28t-28 68z" />
<glyph unicode="d" d="M5 188q4 28 13.5 61t36.5 62.5t68 50.5q0 2 -1 4q16 -70 50 -120q-100 -43 -102 -187h-47q-5 14 -7 26q-3 11 -9 43q-4 19 -4 37q0 12 2 23zM113 586q0 60 16 121.5t39 107.5t49 82.5t46.5 56t29.5 19.5t29.5 -19.5t46 -56t48.5 -82.5t38.5 -107.5t15.5 -121.5 q0 -100 -22.5 -186t-59.5 -138h-192q-38 52 -61 138.5t-23 185.5zM205 215v23h176v-23h-176zM219 170v23h146v-23h-146zM227 739q0 -24 17 -40.5t41 -16.5t40.5 16.5t16.5 40.5q0 23 -17 40.5t-40 17.5t-40.5 -17.5t-17.5 -40.5zM412 246q34 48 49 120h1q-1 -2 -1 -4 q40 -21 66.5 -50.5t36 -62.5t13.5 -61q2 -11 2 -23q0 -19 -4 -37q-6 -32 -8.5 -43.5t-7.5 -25.5h-45q-2 144 -102 187z" />
<glyph unicode="e" d="M4 121v715q0 12 9.5 20t21.5 8q13 0 22 -8t9 -20v-715q0 -13 -9 -22t-22 -9q-12 0 -21.5 9t-9.5 22zM98 438v383q42 37 88 47q23 5 45 6q21 0 43 -6q42 -10 86.5 -29.5l89 -39t86.5 -30.5q22 -6 45 -6q22 -1 45 5q47 10 91 47v-383q-42 -36 -88 -46q-23 -5 -45 -5.5 t-44 5.5q-42 10 -86 29.5l-88 39t-87 29.5q-22 5 -44.5 5.5t-45.5 -5.5q-47 -10 -91 -46z" />
<glyph unicode="f" d="M4 500q2 22 21 37q20 15 43 12.5t38 -21.5l62 -73l160 219q14 19 38 23q5 1 10 1q18 0 34 -12q19 -12 22.5 -34.5t-10.5 -41.5l-197 -274q-11 -17 -16 -19q-16 -13 -36 -13h-6q-23 3 -38 22l-111 131q-15 18 -15 37q0 3 1 6zM546 379q0 22 15 41l84 80l-84 82 q-15 19 -15 42t15 40q19 17 42 17t42 -17l80 -82l80 82q19 17 42 17t42 -17q15 -17 15 -40.5t-17 -41.5l-82 -82l84 -82q15 -17 15 -39t-15 -41q-19 -17 -42 -17t-40 17l-82 84l-82 -84q-19 -15 -41 -15t-41 15q-15 19 -15 41z" />
<glyph unicode="g" d="M2 617q0 73 53 126t126 53t128 -53q49 -53 49 -125.5t-49 -125.5q-55 -52 -128 -52t-126 52t-53 125zM272 403q30 10 72 52q41 41 51 71l170 -168q25 -26 25 -61t-25 -61q-28 -26 -63.5 -26t-61.5 26zM580 201l34 32q23 -22 55.5 -21t55.5 24q23 22 22 54.5t-26 57.5 q-38 41 -38 96q0 51 36 88q36 36 86 36h3q52 -1 89 -38l-33 -32q-25 22 -56.5 21.5t-53.5 -23.5q-23 -22 -22 -55.5t26 -55.5q39 -42 39 -95q0 -52 -37 -91q-37 -35 -90 -35t-90 37z" />
<glyph unicode="h" d="M0 623q0 141 100 240.5t240 99.5q141 0 241.5 -99.5t100.5 -240.5q0 -102 -55 -185l270 -270q20 -22 20 -50t-20 -50q-22 -20 -50 -20t-50 20l-271 270q-83 -55 -186 -55q-140 0 -240 100.5t-100 239.5zM141 623q0 -83 58 -141t141 -58t142 58t59 141t-59 141.5 t-142 58.5t-141 -58.5t-58 -141.5z" />
<glyph unicode="i" d="M8 412v45h4l238 241q9 8 20.5 8t18.5 -8q19 -22 2 -43l-187 -186h537l225 229q9 8 20.5 8t18.5 -8q10 -12 10 -23q0 -10 -8 -20l-235 -237h-4v-6q-3 -60 -46.5 -102t-103.5 -42q-63 0 -106 43t-45 105h-58q-2 -62 -45 -105t-106 -43q-60 0 -103.5 42t-46.5 102zM66 416 q1 -38 28.5 -64t63.5 -26q37 0 65 26t29 64h-186zM424 416q1 -38 29 -64t65 -26q36 0 63.5 26t28.5 64h-186z" />
<glyph unicode="j" d="M4 702q3 33 11 63t30.5 68t55.5 65t92 46t135 19q69 0 122.5 -16.5t84 -43.5t51 -56.5t28 -61.5t10.5 -51q1 -14 1 -26v-8q0 -59 -15.5 -103.5t-40.5 -73.5t-51.5 -51t-52.5 -49t-39 -56q-11 -31 -39 -31h-147q-42 0 -33 39q9 47 29 81.5t43.5 55t46.5 39.5t42.5 46.5 t26.5 64.5q7 32 -11.5 60t-55.5 28q-92 0 -105 -91q-6 -35 -39 -26l-149 31q-31 8 -31 38zM201 84v143q0 35 35 35h145q19 0 27 -8t8 -27v-143q0 -35 -35 -35h-145q-35 0 -35 35z" />
<glyph unicode="k" d="M4 508q0 9 7 15.5t16 6.5h108q9 0 16 -6.5t7 -15.5t-7 -16t-16 -7h-108q-10 0 -16.5 7t-6.5 16zM135 184q-7 9 -7 17.5t7 17.5l78 76q16 13 35 0q13 -17 0 -33l-78 -78q-16 -13 -35 0zM135 797q-7 9 -7 17t7 15q18 15 35 2l78 -77q14 -17 0 -31q-18 -15 -35 -2zM219 508 q0 100 71 170t171 70q99 0 169 -70t70 -170t-70 -170t-169 -70q-100 0 -171 70t-71 170zM436 76v108q0 9 7.5 16t17.5 7q9 0 15.5 -7t6.5 -16v-108q0 -10 -6.5 -17.5t-15.5 -7.5q-11 0 -18 7.5t-7 17.5zM436 831v109q0 10 7 17.5t18 7.5q9 0 15.5 -7.5t6.5 -17.5v-109 q0 -9 -6.5 -15.5t-15.5 -6.5q-10 0 -17.5 6.5t-7.5 15.5zM674 264q-8 7 -8 14.5t8 16.5q17 13 33 0l77 -76q14 -17 0 -35q-8 -7 -17 -7l-17 7zM674 723q-8 7 -8 15t8 16l76 77q8 7 17 7l17 -7q14 -17 0 -34l-77 -76q-17 -14 -33 2zM762 508q0 9 6.5 15.5t15.5 6.5h109 q10 0 17.5 -6.5t7.5 -15.5t-7.5 -16t-17.5 -7h-109q-9 0 -15.5 7t-6.5 16z" />
<glyph unicode="l" d="M4 508q0 189 134 322t323 133t323 -133t134 -322q0 -190 -134 -324.5t-323 -134.5t-323 134.5t-134 324.5zM168 508q0 -122 86 -207.5t207 -85.5t207 85.5t86 207.5q0 120 -86 205.5t-207 85.5t-207 -85.5t-86 -205.5z" />
<glyph unicode="m" d="M8 502q0 124 60.5 228t165 164t227.5 60t227 -60t164.5 -164t60.5 -228q0 -188 -132.5 -320.5t-319.5 -132.5t-320 132.5t-133 320.5zM139 502q0 -132 94.5 -227t227.5 -95t227 95t94 227q0 134 -94 228.5t-227 94.5t-227.5 -94.5t-94.5 -228.5zM416 457v2q-1 6 -1 12 q0 12 5 23l78 231q6 22 20 33q10 8 19 8q4 0 8 -2q12 -5 15.5 -22t-3.5 -40l-74 -219l121 -123q13 -11 13 -23q0 -13 -15 -28q-16 -16 -30 -16q-12 0 -23 12l-125 123q-9 9 -9 22q0 3 1 7z" />
<glyph unicode="n" d="M8 504q0 187 132.5 319.5t320.5 132.5q187 0 319.5 -132t132.5 -320q0 -124 -60.5 -228.5t-164.5 -164.5t-227 -60q-92 0 -176 35.5t-144.5 96t-96.5 144.5t-36 177zM117 504q0 -142 100.5 -243t243.5 -101q141 0 242.5 101t101.5 243q0 141 -101.5 241.5t-242.5 100.5 t-242.5 -100.5t-101.5 -241.5zM406 293q0 23 16 39t39 16t39 -16t16 -39t-16 -38t-39 -15t-39 15t-16 38zM406 485v217q0 26 16 45t39 19t39 -19t16 -45v-217q0 -30 -15.5 -49.5t-39.5 -19.5t-39.5 19.5t-15.5 49.5z" />
<glyph unicode="o" d="M8 512q0 187 132.5 319t320.5 132t320 -132t132 -319q0 -124 -60.5 -228.5t-164.5 -164.5t-227 -60q-92 0 -176 35.5t-144.5 96t-96.5 144.5t-36 177zM117 512q0 -142 101.5 -243t242.5 -101t242.5 101t101.5 243q0 141 -101.5 241.5t-242.5 100.5t-242.5 -100.5 t-101.5 -241.5zM279 483v164q0 19 13.5 32t33.5 13h270q20 0 33.5 -13t13.5 -32v-164q0 -19 -13.5 -32t-33.5 -13h-12q13 -63 71 -108q-9 -1 -18 -1q-23 0 -43 6q-28 8 -44 20.5t-28 29.5t-17 29.5t-7 23.5h-172q-20 0 -33.5 13t-13.5 32z" />
<glyph unicode="p" d="M4 444q0 116 51 215q49 101 123 160q75 60 129 60q34 0 55 -21q23 -26 23 -55q0 -51 -45 -74q-57 -31 -102 -82q-37 -46 -43 -121h20q69 0 121 -49q53 -50 53 -125q0 -73 -53 -123q-51 -45 -131 -45q-87 0 -144 66t-57 194zM532 444q0 83 29 168q28 74 78 140 q42 53 100 92q56 35 97 35q36 0 57 -21q20 -23 20 -55q0 -51 -45 -74q-60 -33 -102 -82q-31 -42 -41 -121h20q67 0 119 -49q54 -54 54 -125q0 -72 -54 -123q-55 -49 -133 -49q-83 0 -141 70t-58 194z" />
<glyph unicode="q" d="M4 123v223q0 28 19 47t45 19q28 0 46.5 -19t18.5 -47v-63l162 159q20 19 46 19t46 -19q19 -20 19 -46t-19 -46l-164 -164h70q28 0 46.5 -18.5t18.5 -44.5q0 -28 -18.5 -47t-46.5 -19h-223q-26 0 -43 17q-23 20 -23 49zM518 637q0 27 19 47l157 158h-67q-27 0 -45.5 19 t-18.5 46q0 26 19 45t45 19h223q28 0 46.5 -19t18.5 -47v-223q0 -28 -18.5 -47t-44.5 -19q-28 0 -47 19t-19 47v68l-157 -160q-20 -19 -46 -19t-46 19q-19 20 -19 47z" />
<glyph unicode="r" d="M0 621v14l6 -14h-6zM6 621h203q18 0 18 -46v-28h-41v-185h-75v191h-72zM248 621h74q6 0 11 -2t7 -3.5t6 -7.5t6 -8l99 -108v106q0 23 20 23q46 0 64 2q-11 -11 -11 -25v-236h-35q-13 0 -19 3t-15 14l-125 133v-150h-76v236q0 17 -6 23zM535 623q6 3 11 3q3 0 5 -1 q0 -2 -16 -2zM545 432v162q0 22 16 22q1 0 6 -10l41 -117v-10l23 123q5 19 18 19h78h2q3 0 8 -5q0 -8 6 -10l-4 -2l33 -112l47 129h92l4 2l-106 -261h-78q-2 6 -12.5 45.5t-19.5 71.5t-11 33q-28 -98 -41 -150h-76q-1 3 -4.5 13t-10 27t-11.5 30zM915 625h3h-3z" />
<glyph unicode="s" d="M10 449l133 145l27 29l287 301l184 -195v197h64v-262l40 -41l31 -35l135 -144h-137v-366h-629v371h-135z" />
<glyph unicode="t" d="M8 197v583q108 47 226 48h6q116 0 221 -42q106 42 222 42h5q119 -1 225 -48v-583q-113 46 -228 46q-107 0 -216 -40v-6l-8 2l-8 -2v6q-102 39 -214 39h-9q-116 -2 -222 -45zM70 287q75 34 180 34t180 -34v450q-76 31 -180 31t-180 -31v-450zM492 287q75 34 180 34 t180 -34v450q-76 31 -180 31t-180 -31v-450z" />
<glyph unicode="&#x2000;" horiz-adv-x="682" />
<glyph unicode="&#x2001;" horiz-adv-x="1365" />
<glyph unicode="&#x2002;" horiz-adv-x="682" />
<glyph unicode="&#x2003;" horiz-adv-x="1365" />
<glyph unicode="&#x2004;" horiz-adv-x="455" />
<glyph unicode="&#x2005;" horiz-adv-x="341" />
<glyph unicode="&#x2006;" horiz-adv-x="227" />
<glyph unicode="&#x2007;" horiz-adv-x="227" />
<glyph unicode="&#x2008;" horiz-adv-x="170" />
<glyph unicode="&#x2009;" horiz-adv-x="273" />
<glyph unicode="&#x200a;" horiz-adv-x="75" />
<glyph unicode="&#x202f;" horiz-adv-x="273" />
<glyph unicode="&#x205f;" horiz-adv-x="341" />
<glyph unicode="&#xe000;" horiz-adv-x="1024" d="M0 0z" />
</font>
</defs>
</svg>
